<svg id="Layer_1" enable-background="new 0 0 512 512" viewBox="0 0 512 512" xmlns="http://www.w3.org/2000/svg"><path d="m477.21 139v-10.36l7.96-1.4c7.84-1.38 13.04-9.22 11.59-17.48l-12.37-70.16c-.77-4.38-3.09-7.95-6.71-10.33-3.75-2.46-8.11-3.03-12.27-1.59-27.9 9.65-31.08 18.25-34.94 57.82-.67 6.88-1.93 30.2 10.04 41.28 3.88 3.59 8.72 5.43 14.18 5.43 1.5 0 3.05-.14 4.64-.42l5.88-1.04v5.46c-20.76-1.89-40.91 10.75-47.93 31.2l-61.87 180.24c-4.69 3.24-8.31 7.9-10.84 13.93l-121.12-23.52c-.09-.02-.19-.03-.28-.05-10.65-1.54-20.57 1.36-28.71 8.4-8.13 7.04-12.43 16.45-12.43 27.21v43.15c0 7.81 6.36 14.17 14.17 14.17h15.2v16.01c0 21.03 17.11 38.14 38.14 38.14h115.16c21.03 0 38.14-17.11 38.14-38.14v-16.01h14.39c6.54 0 12.19-4.43 13.76-10.78l61.72-250.3c3.14-12.76-3.7-25.86-15.5-30.86zm-19.97-19.02c-4.83.86-7.21-.73-8.58-2-5.86-5.42-7.34-20.03-6.25-31.31 3.74-38.38 6.14-40.46 26.91-47.64.22-.08.42-.12.64-.12.33 0 .68.11 1.13.41.82.54 1.28 1.27 1.47 2.38l12.37 70.15c.3 1.68-.57 3.35-1.85 3.58zm-210.45 310.97h120.65v16.01c0 1.49-1.26 2.75-2.75 2.75h-115.15c-1.49 0-2.75-1.26-2.75-2.75zm-52.76-14.17v-43.15c0-7.27 2.79-13.37 8.29-18.13 5.46-4.73 11.85-6.62 19-5.62l120 23.3c-.76 4.47-1.16 9.4-1.16 14.81v30.96h-143.96c-1.18 0-2.17-1-2.17-2.17zm196.8 30.18c0 14.41-11.73 26.14-26.14 26.14h-115.15c-14.41 0-26.14-11.72-26.14-26.14v-16.01h11.39v16.01c0 8.13 6.62 14.75 14.75 14.75h115.16c8.13 0 14.75-6.62 14.75-14.75v-16.01h11.39v16.01zm28.5-29.67c-.25 1.02-1.06 1.65-2.11 1.65h-65.07v-30.96c0-16.1 3.61-26.5 10.73-30.92 14.95-9.27 46.35 6.29 67.19 16.64zm61.72-250.3-48.03 194.78c-19.48-9.65-43.93-21.31-63.16-19.26l58.77-171.2c5.93-17.28 23.58-26.82 41.04-22.18l.96.26c7.64 2.04 12.31 9.93 10.42 17.6zm-298.57 40.38 30.3 17.5c-3.41 7.51-4.62 15.2-3.5 22.47 1.75 11.38 8.46 20.42 20.5 27.62.94.56 2.01.85 3.08.85.5 0 1.01-.06 1.51-.19 1.56-.4 2.89-1.42 3.69-2.81l49.97-86.55c.8-1.39 1.02-3.05.59-4.6s-1.46-2.86-2.87-3.64c-12.26-6.82-23.44-8.11-34.18-3.95-6.86 2.67-12.91 7.56-17.71 14.27l-30.3-17.5c-3.7-2.14-7.95-2.82-12.21-2.05-39.78-19.24-66.19-21.63-90.74 18.67-24.71 40.58-21.42 112.58-18.75 170.48v36.39c0 7.6-6.18 13.79-13.79 13.79h-47.07c-3.31 0-6 2.69-6 6v21.84c0 3.31 2.69 6 6 6h49.12c25.13 0 45.57-20.44 45.57-45.57v-38.59c0-.1 0-.21-.01-.31l-.35-6.74c-2.66-50.21-6.31-118.97 15.31-148.93 12.43-17.23 20.93-13.52 41.47-4.55.9.39 1.82.79 2.75 1.2 1.47 3.67 4.04 6.84 7.62 8.9zm15.09-26.13 43.3 25c2.87 1.65 6.54.67 8.2-2.2s.67-6.54-2.2-8.2l-2.53-1.46c3.3-4.31 7.24-7.43 11.59-9.12 3.84-1.49 9.69-2.86 18.48.61l-43.5 75.34c-7.39-5.87-9.14-11.63-9.77-15.7-.71-4.61.02-9.59 2.11-14.6l2.53 1.46c.95.55 1.98.8 2.99.8 2.07 0 4.09-1.08 5.2-3 1.66-2.87.67-6.54-2.2-8.2l-43.3-25c-3.22-1.86-4.03-6.75-1.77-10.67l.73-1.27c1.17-2.03 2.95-3.52 5.01-4.19 1.84-.59 3.66-.45 5.13.4zm-76.66 13.56c-24.09 33.39-20.47 101.7-17.56 156.59l.35 6.57v38.42c0 18.51-15.06 33.57-33.57 33.57h-43.13v-9.84h41.07c14.22 0 25.79-11.57 25.79-25.79v-36.52c0-.09 0-.18-.01-.28-2.59-56.29-5.82-126.34 17.01-163.81 18.92-31.05 36.47-31.75 68.12-17.46-.7.87-1.36 1.8-1.93 2.79l-.73 1.27c-.9 1.56-1.56 3.18-2.04 4.82-19.95-8.65-36.04-14.36-53.37 9.67zm190.82 3.19c-2.19-2.49-1.95-6.28.54-8.47 12.81-11.27 28.47-7.63 37.59.53 7.99 7.14 12.66 19.18 6.97 31.47 4.17 4.75 6.21 12.31 5.71 21.72-.98 18.4-11.71 40.38-30.51 48.94-2.16 11.18-11.6 22.51-22.68 26.49-6.46 2.32-12.74 1.84-18-1.24-4.55 4.63-9.68 6.43-14.55 6.44-3.39 0-6.65-.88-9.49-2.28-10.36-5.12-18.34-18.92-13.69-31.32 1.16-3.1 4.62-4.67 7.72-3.51s4.68 4.62 3.51 7.72c-2.27 6.04 2.23 13.62 7.76 16.35 4.83 2.39 9.11.67 12.71-5.09 1.01-1.61 2.72-2.65 4.61-2.8s3.75.61 5 2.04c2.74 3.14 6.13 3.94 10.35 2.42 7.76-2.79 15-12.13 15.2-19.6.07-2.5 1.68-4.7 4.04-5.51 15.83-5.46 25.22-24.51 26.02-39.66.44-8.23-1.78-13.12-4.03-14.17-1.6-.75-2.79-2.17-3.25-3.88s-.14-3.53.87-4.98c5.87-8.42 2.67-16.15-2.29-20.58-5.48-4.9-14.31-6.94-21.67-.47-2.46 2.17-6.25 1.93-8.44-.56zm-19.96 14.19 31.21 8.36c3.2.86 5.1 4.15 4.24 7.35-.72 2.68-3.14 4.45-5.79 4.45-.51 0-1.04-.07-1.56-.21l-31.21-8.36c-3.2-.86-5.1-4.15-4.24-7.35s4.15-5.09 7.35-4.24zm-16.35 31.43c-2.87-1.66-3.85-5.33-2.2-8.2 1.66-2.87 5.33-3.85 8.2-2.2l27.98 16.15c2.87 1.66 3.85 5.33 2.2 8.2-1.11 1.92-3.13 3-5.2 3-1.02 0-2.05-.26-2.99-.8zm-4.56 11 22.84 22.84c2.34 2.34 2.34 6.14 0 8.48-1.17 1.17-2.71 1.76-4.24 1.76s-3.07-.59-4.24-1.76l-22.84-22.84c-2.34-2.34-2.34-6.14 0-8.48 2.34-2.35 6.14-2.35 8.48 0z"/></svg>