<svg id="Layer_1" viewBox="0 0 512 512" xmlns="http://www.w3.org/2000/svg" data-name="Layer 1">
  <path d="m446.112 340a7 7 0 0 0 -8.579-4.961l-79.172 21.232a7 7 0 0 0 -4.95 8.573l8.787 32.826a7 7 0 0 0 8.577 4.952l37.225-9.976c17.015-4.572 48.685-13.083 40.892-42.21zm-41.744 39.118-30.454 8.165-5.167-19.3 65.639-17.6.973 3.654v.01c2.715 10.132-1.421 17.128-30.991 25.075zm63.439-115.015h-37.453c-9.673-20.841-19.9-41.31-30.622-59.412a89.169 89.169 0 0 0 -12.043-15.968c.162-.372.324-.744.476-1.122a54.122 54.122 0 1 0 -.91-105.7 44.836 44.836 0 0 0 -80.5 14.877 43.517 43.517 0 0 0 -52.4 42.54 43.174 43.174 0 0 0 5.658 21.4c-22.92-.059-45.8.461-68.263 1.554a36.78 36.78 0 0 0 -32.965-10.5 31.038 31.038 0 0 0 -54.041 9.386 30.721 30.721 0 0 0 -3.83-.237 30.134 30.134 0 0 0 0 60.267c.539 0 1.077-.015 1.611-.042.059.171.134.334.2.5-7.323 13.585-14.317 27.869-21.083 42.455h-37.449a20.262 20.262 0 0 0 -20.239 20.239v2.581a39.411 39.411 0 0 0 30.61 38.35c-4.083 9.412-8 18.411-11.884 27.1a40.409 40.409 0 0 0 -3.646 17.1v70.9a30.837 30.837 0 0 0 16.866 27.451v29.834a14.36 14.36 0 0 0 14.344 14.344h54.456a14.36 14.36 0 0 0 14.343-14.344v-26.476h233.916v26.476a14.36 14.36 0 0 0 14.341 14.344h54.454a14.36 14.36 0 0 0 14.346-14.344v-29.834a30.837 30.837 0 0 0 16.867-27.455v-70.9a40.381 40.381 0 0 0 -3.642-17.085c-3.883-8.7-7.8-17.7-11.884-27.111a39.412 39.412 0 0 0 30.606-38.349v-2.581a20.262 20.262 0 0 0 -20.24-20.234zm-170-154.234a29.4 29.4 0 0 1 11.919 2.5 7 7 0 0 0 9.819-6.163 30.813 30.813 0 0 1 58.234-12.9 7 7 0 0 0 8.527 3.42 40.134 40.134 0 1 1 -.435 75.694 7 7 0 0 0 -9.215 5.107 30.8 30.8 0 0 1 -60.786-4.04 7 7 0 0 0 -9.08-6.119 29.946 29.946 0 0 1 -8.983 1.406 29.452 29.452 0 0 1 0-58.9zm68.959 114.331c10.777 18.171 21.124 36.577 30.8 54.794h-283.134c6.561-12.35 13.426-24.762 20.447-37.017a31.264 31.264 0 0 0 24.906-17.383 36.908 36.908 0 0 0 40.474-24.364c37.181-1.6 74.978-1.593 112.5.03a44.862 44.862 0 0 0 33.813 15.521 44.23 44.23 0 0 0 12.307-1.753 49.605 49.605 0 0 1 7.887 10.172zm-93.977-49.38a43.2 43.2 0 0 0 30.469 7.612q.471 1.767 1.082 3.475c-34.076-1.241-68.319-1.162-102.083.221a36.712 36.712 0 0 0 -2.027-10.228c23.911-1.014 48.256-1.375 72.559-1.08zm-171.874 32.367a16.13 16.13 0 0 1 0-32.259 15.891 15.891 0 0 1 6.5 1.35 7 7 0 0 0 9.846-6.148 17 17 0 0 1 32.123-7.125 7 7 0 0 0 8.5 3.439 22.916 22.916 0 1 1 7.511 44.57 22.68 22.68 0 0 1 -7.718-1.343 7 7 0 0 0 -9.215 5.1 17 17 0 0 1 -33.547-2.218 7 7 0 0 0 -9.117-6.106 15.994 15.994 0 0 1 -4.883.74zm-62.958 79.74v-2.581a6.243 6.243 0 0 1 6.236-6.235h31.05c-5.082 11.289-10.053 22.669-14.956 33.968a25.383 25.383 0 0 1 -22.33-25.152zm87.081 210.729a.363.363 0 0 1 -.34.34h-54.454a.34.34 0 0 1 -.34-.34v-26.476h55.134zm51.363-40.48c3.18-5.056 9.9-8.644 17.491-8.644h124.216c7.589 0 14.311 3.588 17.491 8.644zm265.7 40.48a.34.34 0 0 1 -.34.34h-54.461a.363.363 0 0 1 -.34-.34v-26.476h55.14zm16.867-128.184v70.9a16.84 16.84 0 0 1 -11.792 16.028c-.07.02-.141.037-.211.06a16.791 16.791 0 0 1 -4.84.715h-91.4c-3.378-12.949-16.713-22.648-32.613-22.648h-124.22c-15.9 0-29.235 9.7-32.613 22.648h-91.4a16.791 16.791 0 0 1 -4.84-.715c-.07-.023-.141-.04-.211-.06a16.84 16.84 0 0 1 -11.787-16.034v-70.9a26.165 26.165 0 0 1 2.421-11.366c4.7-10.519 9.429-21.431 14.436-32.984 7.367-17 14.859-34.283 22.624-51.18.017-.039.038-.078.055-.118 6.175-13.434 12.527-26.611 19.12-39.209a31.335 31.335 0 0 0 8.327 5.152c-7.042 12.407-13.911 24.941-20.453 37.38l-2.948 5.583a7 7 0 0 0 6.191 10.272h306.372a7 7 0 0 0 6.191-10.272l-2.943-5.573c-10.488-19.942-21.8-40.161-33.615-60.082a64.643 64.643 0 0 0 -6.708-9.366 45.464 45.464 0 0 0 7.725-6.806 76.039 76.039 0 0 1 7.849 10.94c19.884 33.558 38.245 75.937 54.444 113.327 5 11.537 9.719 22.433 14.413 32.946a26.144 26.144 0 0 1 2.421 11.362zm15.08-82.545a25.382 25.382 0 0 1 -22.323 25.151c-4.81-11.085-9.8-22.515-14.963-33.967h31.05a6.242 6.242 0 0 1 6.236 6.235zm-320.4 69.348-79.181-21.232a7 7 0 0 0 -8.579 4.957l-2.776 10.422c-7.8 29.136 23.873 37.647 40.894 42.221l37.219 9.979a7 7 0 0 0 8.577-4.952l8.787-32.826a7 7 0 0 0 -4.95-8.569zm-15.553 31.012-30.45-8.164c-29.574-7.948-33.71-14.944-31-25.074v-.01l.973-3.654 65.639 17.6zm296.245 34.031c-4.745-6.68-11.707-11.38-21.3-14.371-9.16-2.836-28.269-2.12-38.584 5.485-6.019 4.437-7.282 9.763-7.282 13.45 0 9.961 14.723 16.895 27.074 20.958 4.687 1.541 15.818 4.8 26.048 4.8 7.252 0 14.052-1.639 17.777-6.69 4.411-5.978 3.154-13.929-3.734-23.633zm-21 15.764c-14.8-2.152-28.6-8.651-31.937-12a4.846 4.846 0 0 1 1.362-1.376c5.943-4.381 20.279-5.189 26.12-3.384 6.54 2.04 11.132 5.02 14.036 9.107 3.053 4.3 3.592 6.519 3.68 7.3-1.172.602-5.115 1.538-13.259.353zm-275.8-24.65c-10.316-7.606-29.426-8.323-38.6-5.48-9.577 2.986-16.538 7.685-21.283 14.364-6.9 9.7-8.157 17.653-3.749 23.634 3.725 5.052 10.524 6.69 17.779 6.69 10.226 0 21.356-3.257 26.042-4.8 12.359-4.062 27.091-11 27.091-20.961.004-3.679-1.259-9.01-7.278-13.447zm-38.876 24.648c-8.15 1.19-12.1.255-13.275-.352.09-.783.632-3 3.686-7.3 2.9-4.088 7.5-7.067 14.023-9.1 5.853-1.814 20.191-1 26.134 3.379a4.838 4.838 0 0 1 1.361 1.376c-3.339 3.345-17.134 9.841-31.929 11.997zm203.909-96.692h-93.173c-22.773 0-41.3 16.111-41.3 35.915v3.828c0 14.051 12.97 25.483 28.913 25.483h117.977c15.943 0 28.913-11.432 28.913-25.483v-3.831c-.003-19.8-18.54-35.912-41.33-35.912zm27.327 39.743c0 6.222-6.828 11.479-14.91 11.479h-117.98c-8.082 0-14.91-5.257-14.91-11.479v-3.831c0-12.082 12.246-21.911 27.3-21.911h93.175c15.068 0 27.327 9.829 27.327 21.911zm102.218-162.683a23.783 23.783 0 1 0 23.782-23.783 23.81 23.81 0 0 0 -23.782 23.783zm33.563 0a9.78 9.78 0 1 1 -9.78-9.779 9.791 9.791 0 0 1 9.78 9.779zm-355.894-102.189a33.436 33.436 0 1 0 -33.42-33.421 33.459 33.459 0 0 0 33.42 33.421zm0-52.867a19.432 19.432 0 1 1 -19.417 19.446 19.454 19.454 0 0 1 19.417-19.446zm94.253 65.878a23.783 23.783 0 1 0 -23.782-23.783 23.81 23.81 0 0 0 23.782 23.783zm0-33.562a9.779 9.779 0 1 1 -9.779 9.779 9.79 9.79 0 0 1 9.779-9.779zm224.847-20.041a33.436 33.436 0 1 0 -33.449-33.422 33.459 33.459 0 0 0 33.449 33.422zm0-52.867a19.432 19.432 0 1 1 -19.446 19.445 19.453 19.453 0 0 1 19.446-19.445zm-156.417 45.071a33.436 33.436 0 1 0 -33.421-33.45 33.474 33.474 0 0 0 33.421 33.45zm0-52.867a19.432 19.432 0 1 1 -19.418 19.417 19.439 19.439 0 0 1 19.418-19.421z"/></svg>