<svg id="Layer_2" viewBox="0 0 64 64" xmlns="http://www.w3.org/2000/svg"><path d="m63 46c-4.41113281 0-8 3.58886719-8 8v5c0 1.65429688-1.34570312 3-3 3s-3-1.34570312-3-3v-1.21972656l3.2421875-.81054688c.26660156-.06640625.49414062-.23925781.62890625-.47851562s.16503906-.52246094.08496094-.78515625l-3.86035156-12.54589844 1.73632812-2.60546875c.29394531-.44140625.19238281-1.03613281-.23242188-1.35449219l-2.93359375-2.20019531h3.33398438c.55273438 0 1-.44726562 1-1v-2h2v3c0 .55273438.44726562 1 1 1s1-.44726562 1-1v-8c0-.55273438-.44726562-1-1-1s-1 .44726562-1 1v3h-2v-2c0-.55273438-.44726562-1-1-1h-4.18426514c-.41412354-1.16149902-1.51379395-2-2.81573486-2h-11.5859375l2.04034424-2.04034424 9.64520264-.96453857c.22949219-.0234375.44433594-.125.60742188-.28808594l5.29296875-5.29296875.29296875.29296875c.1953125.1953125.45117188.29296875.70703125.29296875s.51171875-.09765625.70703125-.29296875l3-3c.390625-.390625.390625-1.0234375 0-1.4140625l-14.00000001-14c-.390625-.390625-1.0234375-.390625-1.4140625 0l-3 3c-.390625.390625-.390625 1.0234375 0 1.4140625l.29296875.29296875-5.29296875 5.29296875c-.16308594.16308594-.26464844.37792969-.28808594.60742188l-.96453857 9.64520264-2.74737549 2.74737549-3.70703125 3.70703125h-5.5859375c-.55273438 0-1 .44726562-1 1v1h-3c-.55273438 0-1 .44726562-1 1v1.18029785l-4.19628906.8392334c-.46679688.09375-.80371094.50390625-.80371094.98046875v4c0 .4765625.33691406.88671875.80371094.98046875l4.19628906.8392334v1.18029785c0 .55273438.44726562 1 1 1h3v1c0 .55273438.44726562 1 1 1h5.69110107c-.55682373 3.26928711-2.08282471 8.19110107-6.27313232 11.18652344-.31640625.2265625-.47363281.6171875-.40039062 1s.36132812.68945312.74023438.78320312c.06738281.01757812.44824219.10449219 1.0546796.10449219 2.34949521 0 8.09546689-1.31542969 12.25629452-13.07421875h2.06274414l-.96356201 1.4453125c-.16699219.25097656-.21191406.56347656-.12304688.8515625.08984375.28710938.30371094.51953125.58398438.63183594l4.47753906 1.79101562 1.90722656 11.44433594c.04589844.27539062.20507812.51953125.43847656.671875.1640625.10839844.35449219.1640625.54785156.1640625.08105469 0 .16210938-.00976562.2421875-.03027344l6.7578125-1.68945312v.71972656c0 2.75683594 2.24316406 5 5 5s5-2.24316406 5-5v-5c0-3.30859375 2.69140625-6 6-6 .55273438 0 1-.44726562 1-1s-.44726562-1-1-1zm-13-11h-3v-4h3zm-10-32.5859375 12.5859375 12.5859375-1.5859375 1.5859375-12.5859375-12.5859375zm-7.04003906 9.04101562 5.04003906-5.04101562 10.5859375 10.5859375-5.04101562 5.04003906-9.17285156.91796875-2.33007812-2.33007812.91796875-9.17285156zm-1.95996094 10.95898438 1.5859375 1.5859375-1.5859375 1.5859375-1.5859375-1.5859375zm-3 3 1.5859375 1.5859375h-3.171875zm-18 10.76660156v-2.36132812l3-.59960938v3.56054688zm5 2.81933594v-8h2v8zm4-10h25c.55175781 0 1 .44824219 1 1v6.53125l-5.36230469 4.46875h-20.63769531zm2.125 24.51074219c2.98046875-3.3815918 4.13647461-7.62304688 4.58911133-10.51074219h3.22973633c-2.57208252 6.90374756-5.63116455 9.53466797-7.81884766 10.51074219zm17.86132812-6.67480469c-.05761719-.34472656-.29101562-.63476562-.61523438-.76464844l-3.85546875-1.54199219 1.01953125-1.52929688h4.46484375c.234375 0 .4609375-.08203125.640625-.23144531l5.39276123-4.49395752 2.61016846 1.95782471-1.47558594 2.21289062c-.16699219.25-.21191406.56152344-.12402344.84863281l.27099609.88067627-2.63134766.87713623c-.5234375.17382812-.80664062.74023438-.63183594 1.26464844.13964844.41894531.52929688.68359375.94824219.68359375.10449219 0 .2109375-.01660156.31640625-.05175781l2.58673096-.86224365.64245605 2.08758545-2.36199951.78735352c-.5234375.17382812-.80664062.74023438-.63183594 1.26464844.13964844.41894531.52929688.68359375.94824219.68359375.10449219 0 .2109375-.01660156.31640625-.05175781l2.31738281-.77246094 1.60058594 5.20117188-9.92578125 2.48144531-1.82226562-10.93164062z"/><path d="m5 34h-4c-.55273438 0-1 .44726562-1 1s.44726562 1 1 1h4c.55273438 0 1-.44726562 1-1s-.44726562-1-1-1z"/><path d="m4.4453125 30.83203125c.17089844.11328125.36328125.16796875.55371094.16796875.32324219 0 .640625-.15625.83300781-.4453125.30664062-.45996094.18261719-1.08007812-.27734375-1.38671875l-3-2c-.46191406-.30566406-1.08105469-.18261719-1.38671875.27734375-.30664062.45996094-.18261719 1.08007812.27734375 1.38671875z"/><path d="m4.4453125 39.16796875-3 2c-.45996094.30664062-.58398438.92675781-.27734375 1.38671875.19238281.2890625.50976562.4453125.83300781.4453125.19042969 0 .3828125-.0546875.55371094-.16796875l3-2c.45996094-.30664062.58398438-.92675781.27734375-1.38671875-.30664062-.45898438-.92675781-.58300781-1.38671875-.27734375z"/><path d="m35 33h4c.55273438 0 1-.44726562 1-1s-.44726562-1-1-1h-4c-.55273438 0-1 .44726562-1 1s.44726562 1 1 1z"/><path d="m40 36c0-.55273438-.44726562-1-1-1h-4c-.55273438 0-1 .44726562-1 1s.44726562 1 1 1h4c.55273438 0 1-.44726562 1-1z"/></svg>