<svg fill="none" height="32" viewBox="0 0 32 32" width="32" xmlns="http://www.w3.org/2000/svg" xmlns:xlink="http://www.w3.org/1999/xlink"><clipPath id="clip0"><path d="m0 0h32v32h-32z"/></clipPath><g clip-path="url(#clip0)" fill="#333"><path d="m26.0128 24.052c.1127-.9159 1.0617-1.787 2.1558-2.2388l.0011-.0003c.5989-.2475 1.2494-.5163 1.8471-.9058-.0426.929-.2467 1.9165-1.5832 2.3503z"/><path clip-rule="evenodd" d="m26.4755 19.9994c1.518.0054 2.5361 0 3.1812-1.2433.3438-.6624.4046-1.0982.2912-1.7022-.0573-.3048-.1299-.6219-.2147-.8477-.0715-.1898-.2369-.2399-.3908-.1856-2.3289.8227-4.4959 1.6031-5.3424 3.3223.1388.0997.3556.2066.6188.3046.0935.0349.1929.0686.2968.1004.4723.1449 1.0367.2515 1.5599.2515zm2.4857-2.7815c-.8904.3218-1.688.6345-2.3665 1.0052-.3923.2143-.7218.4362-.9919.6722.2951.0649.5991.1041.8727.1041h.0036c.8039.0029 1.2748-.0065 1.6293-.1119.2577-.0766.4596-.2045.6606-.5919.1427-.2749.1969-.4463.218-.575.0201-.1217.0198-.2597-.0219-.4821m-.0039-.0206c.0013.0068.0026.0137.0039.0206z" fill-rule="evenodd"/><path clip-rule="evenodd" d="m24.0156 26h-8.0156v-1.0011h13.4996c.2659.0003.4393-.113.577-.3098l.0245-.0611c.45-1.123.7685-2.7102.8669-4.3529.0974-1.6254-.0268-3.2019-.3846-4.3541-.2296-.5098-.6444-.7721-1.4736-1.1825-.1897-.0939-.4444-.2326-.6858-.3828-.2135-.1329-.5176-.3357-.725-.5628-.1125-.1233-.1741-.2551-.1872-.2831l-.0015-.0032c-.0235-.0497-.0437-.0994-.0597-.1409-.3675.3855-.8917.6343-1.4958.6343h-9.9548v-1h9.9548c.6431 0 1.1061-.5609 1.0223-1.1477-.4481-1.5173-1.1743-2.91741-2.1088-4.19748-.1365-.15991-.2912-.25823-.4988-.29743-1.857-.35093-5.7521-.35739-8.3695-.35739v-1c2.566 0 6.5817.00183 8.5551.37476.1998.03772.4132.10108.6319.23947.1458.09222.2939.21777.442.39126.8162 1.10748 1.607 2.62603 2.1099 3.99451h.483l-.3293-.9989h1.1072c.5215 0 1.0197.0268 1.4555.1285.4459.1041.908.3055 1.2572.7156.38.4464.4349 1.2439-.161 1.7121-.2022.1588-.4256.2424-.584.2898-.1717.0513-.3501.0841-.515.1058-.3301.0434-.6847.0524-.9866.0421l-.593-.0201-.3214-.9749h-.4876c.1903.6372.3258 1.0662.3736 1.1187.211.231.7902.5624 1.1159.7235.8354.4135 1.5827.8158 1.968 1.7284.7333 2.2971.5751 5.8616-.1429 8.3937l.0069.0012c-.0509.2775-.1464.6971-.3563 1.0816-.008.9412-.2571 2.9522-1.4502 2.9522h-4.6219c-.8516.0384-.9414-1.4743-.9414-1.9993zm1-.0011v.0011c0 .2322.0225.6282.1109.9292.0078.0266.0153.0499.0225.0701h4.4161c.0044-.004.01-.0095.0168-.0169.0594-.0644.1459-.2055.2282-.4533.0608-.1828.1065-.3844.1401-.5863-.1377.0362-.2876.0563-.4506.0561zm5.1478-14.9097.035.0075c.0954.0211.1839.0463.2652.076.2057.075.367.1792.4876.3209.0697.0819.065.2126-.0175.2774-.1062.0834-.2942.1403-.5156.1764-.1051.0171-.2177.0295-.3327.0378-.1964.0143-.4001.0167-.5856.0104l-.3509-.9814c.073 0 .1223-.0013.1645-.0025.0684-.0018.1181-.0031.2198.0025.2369.0132.4465.037.6302.075z" fill-rule="evenodd"/><path d="m16 22h4.8125c1.2081 0 2.1875-1.4924 2.1875-3.3333 0-.3682-.1959-.6667-.4375-.6667h-6.5625v1h5.9866c-.0493.6078-.2304 1.1201-.4633 1.475-.28.4267-.5525.525-.7108.525h-4.8125z"/><path d="m16 24h7.6444c.1964 0 .3556-.1492.3556-.3333 0-.3682-1.385-.6667-1.7778-.6667h-6.2222z"/><path clip-rule="evenodd" d="m3.15302 16.0619c.07126-.1491.23636-.1885.38994-.1458l.18669.0519c.571.1246 1.11668.213 1.62695.2957 1.05848.1714 1.96464.3182 2.62858.7126.30233.1797.56274.4228.74971.7217-.09985.0565-.19927.1137-.29868.1708-.19.1093-.38009.2187-.57311.3228-.72361.3901-1.69611.8505-2.32037.8505-1.52412 0-1.66996-.0012-2.3135-.9775-.34299-.5204-.40365-.8627-.29048-1.337.05708-.2393.12955-.4884.21427-.6657zm3.70766 1.5206c-.04975.0242-.10078.0495-.15288.0754-.36083.1793-.77313.3842-1.16507.3842-.08502 0-.17929.0049-.27784.01-.28457.0148-.60483.0314-.84102-.0626-.23423-.1674-.47386-.5368-.53211-.8153-.00459-.022-.01072-.0595.00594-.1501.45782.0905.89299.1609 1.28929.2251.06834.0111.1368.022.20534.0329.49311.0786.99001.1577 1.46835.3004z" fill-rule="evenodd"/><path d="m2.18457 21.2703.0347.4196 1.00672.5638.32207 1.005 1.19473-.3473 1.2261 1.1418c-.05297-.4306-.51399-1.2937-.72823-1.6764-.06602-.1179-.1086-.1902-.1086-.1902-.23243-.0665-.50608-.1289-.79627-.195-.74817-.1705-1.6063-.3661-2.15122-.7213z"/><path clip-rule="evenodd" d="m16 3h-1v2.00196l-.0562.00004c-.2288.00014-.4576.00028-.6863.00815-.8642.02974-1.6799.30721-2.4803.62033-.2066.08081-.3788.15323-.5026.20696-1.0021-.00684-1.98619.13104-2.97544.26965-.21508.03014-.43041.06031-.64623.08903-.3463.15644-.76673.44912-.99553.98762l-.5639 1.66324-.63415.66571c-.17316-.16888-.41089-.28301-.70675-.29866-.37171-.01963-.76298.0777-1.05638.16783-.31996.09829-.64823.22867-.93359.35241-.27255.11819-.52043.23663-.70535.32823-.05942-.0093-.12332-.0171-.19062-.0224-.3261-.0257-.987244-.0072-1.480841.5308-.642822.7008-.2966792 1.5527.026134 1.9193.416136.4126.972947.6264 1.543297.7247-.04531.1469-.07511.2981-.10483.449-.0067.034-.01339.0679-.02026.1018-.15056.0699-.27321.1231-.3782.1686-.26881.1166-.42181.183-.630671.3499-.067935.0543-.158671.1329-.254116.2337-.173261.183-.450744.5321-.5288915 1.021l-.0382815.2396.901943 2.7449-.8823825 1.7205.0064097.2548c.0309745 1.231.1321258 2.5672.4883398 3.7977.010371.5124.076412 1.2647.306769 1.9428.235731.694.822111 1.7613 2.112471 1.7613h4.06122c.25357.0075.5071-.0502.71861-.1952.21425-.1469.38287-.3795.4377-.6692.04747-.2508-.00749-.4552-.04476-.561-.06824-.1937-.1883-.3583-.3193-.5132.08815-.0207.18962-.0411.30594-.0607h2.58184l1.4183-.4728 2.9069.4845v2.9871h1v-2.8204l.0125.0021v-5.9012l-.0125-.0042v-.6632l.0125.0062v-7.8279l-.0125.0027v-4.11979l.0125.00067v-2.67498l-.0125.00002zm-1 3.00196v.61732c-.15-.00762-.2864-.00688-.4127.00065-.9331.05563-1.9503.53143-2.768.93838l-.003.00148c-.1478.07357-.1845.09185-.3475.08374-.4964-.0247-1.96741-.0909-2.6937-.04761-.18365.01095-.31968.0289-.38028.05629-.06658.0301-.13754.09396-.20999.18049-.39876.47633-.84201 1.63962-.84201 1.63962l-.09289.17039c-.21281.39009-1.69431 3.06229-1.7072 3.06229-.03051.0796-.03661.1607-.02335.2362.03708.2103.23121.3746.44951.3586l4.23701.7821 4.7941-1.0461v4.9592l-1.9875-.9938-3.49999 1c-.20294.0684-.36743.1599-.44903.3251-.06171.1249-.05466.2197-.04477.3527l.00071.0096c.0958 1.2932 1.17538 2.3126 2.49308 2.3126l2-.5 1.4875.4959v2l-1.4875-.4959-2.7222.5c-.1876 0-.6015.0681-.9827.1794l-.0343.0098c-.21567.0619-.76079.2181-.76079.4775 0 .1827.15673.331.351.3333h.00473l3.14426-.5 2.4875.4975v1.0005l-2.9875-.498-1.5.5h-1.14443-.0084-1.34716c-.3802.0595-.67207.1336-.89268.218-.52588.2012-.6468.4608-.59389.7193.01408.0688.04048.1375.07483.205.01012.0199.05195.0725.10759.1425.19984.2514.57779.7269.30436.7145h-4.07917c-1.21391 0-1.42079-1.9361-1.42079-2.8554-.34977-1.1356-.45555-2.4174-.48711-3.6716l.95671-1.8655-.95661-2.9113c-.087273-.2962.48701-.6813.48701-.6813l1.17015-.5429c.02869-.0184.09587-.3515.16357-.6871.0631-.3128.08358-.3615.17394-.4825.09048-.1199.34539-.2435.49395-.221.1337.0203.24717.0263.34542.0198.28796-.0191.44675-.1457.61167-.3353.05603-.0644.10993-.1306.16384-.1967.06786-.0833.13573-.1666.20784-.2465.04768-.0521.05943-.1463.05185-.2456-.00802-.105-.03681-.225-.07985-.3112h-.61866l-.17795.3995c-.03368.0756-.10485.1252-.18432.1277-.06784.0022-.13491.0041-.20118.0057-.32031.0077-.62194.008-.90104-.0063-.67127-.0346-1.21225-.1545-1.56952-.4637-.14187-.1611-.197389-.4106-.03971-.5825.35897-.3912 1.06181-.1262 1.06181-.1262.52071-.2798 1.06285-.5302 1.62236-.7231.27982-.0964.59011-.2009.89296-.1849.0775.0041.12322.0921.08569.1634l-.28771.5465h.79158l.31204-.117 1.36883-1.42914.60746-1.80158c.11094-.26113.32873-.40761.55741-.49699.17867-.06984.36403-.10483.51033-.13244l.0065-.00123c.56864-.10743 1.94208-.11118 2.54188-.10725.1784.00116.2884.00301.2884.00301s.0741-.03476.204-.09096c.7234-.31299 1.5321-.66265 2.3262-.72436.2851-.02215.6239-.02235.8991-.02251zm0 13.94104v-.83l-2.0868-1.0434-2.8513.8147c.1604.6094.6947 1.0671 1.3428 1.1131l2.1478-.537zm0-7.9307-4.8105 1.0497-3.33999-.6165c.14723-.2638.31649-.5699.48419-.8745.22321-.4053.44503-.8104.61095-1.114.15932-.2919.28928-.57781.42116-.86794.07723-.16989.15529-.34163.24032-.51691.0907-.18695.18127-.35498.26169-.47986.88213-.04604 1.76868.00436 2.65108.05452.1153.00656.2308.01312.3459.01946.9025-.49021 2.0552-1.10347 3.0942-1.04777l.041.0022z" fill-rule="evenodd"/></g></svg>