<svg id="Layer_1" enable-background="new 0 0 512 512" height="512" viewBox="0 0 512 512" width="512" xmlns="http://www.w3.org/2000/svg"><path d="m134.242 275.647v192.665c0 4.438-3.598 8.036-8.035 8.036s-8.035-3.598-8.035-8.036v-192.665c0-4.438 3.598-8.036 8.035-8.036s8.035 3.599 8.035 8.036zm-8.035-239.999c-4.438 0-8.035 3.599-8.035 8.038v192.667c0 4.438 3.598 8.039 8.035 8.039s8.035-3.601 8.035-8.039v-192.666c0-4.44-3.597-8.039-8.035-8.039zm365.981 71.147c0 44.961-29.161 83.743-71.684 96.444v19.299c0 4.439-3.598 8.037-8.036 8.037h-13.04v212.491c0 34.702-28.231 62.935-62.934 62.935-34.701 0-62.93-28.232-62.93-62.935v-19.407c0-12.901-10.496-23.399-23.399-23.399h-17.445v3.609.04 46.304c0 30.762-25.026 55.788-55.785 55.788h-101.333c-30.762 0-55.789-25.026-55.789-55.788v-46.297c0-.018 0-.035 0-.055v-126.883c0-.012 0-.029 0-.041v-126.894c0-.017 0-.029 0-.042v-88.214c0-30.763 25.027-55.788 55.789-55.788h101.333c30.759 0 55.785 25.025 55.785 55.788v88.209.053 126.885.052 107.199h17.445c21.769 0 39.474 17.709 39.474 39.475v19.407c0 25.837 21.018 46.86 46.855 46.86 25.841 0 46.859-21.023 46.859-46.86v-212.492h-13.039c-4.438 0-8.036-3.598-8.036-8.037v-19.298c-42.521-12.702-71.684-51.483-71.684-96.444 0-55.58 45.214-100.796 100.798-100.796 55.582-.001 100.796 45.216 100.796 100.795zm-401.883 383.132h71.925v-68.275c0-.014 0-.028 0-.04v-126.891c0-.013 0-.03 0-.043v-126.892c0-.013 0-.028 0-.042v-126.893c0-.013 0-.029 0-.041v-18.734h-71.925v18.73.043 126.893.044 126.884.054 126.88.054zm-16.076-.069v-48.82l-16.756 16.762c-1.569 1.568-3.63 2.354-5.687 2.354-2.054 0-4.112-.785-5.68-2.351-3.144-3.142-3.144-8.23-.006-11.367l28.129-28.135v-104.198l-16.757 16.761c-1.569 1.573-3.63 2.356-5.687 2.356-2.054 0-4.112-.783-5.68-2.351-3.144-3.144-3.144-8.229-.006-11.368l28.129-28.133v-104.202l-16.759 16.764c-1.565 1.569-3.626 2.355-5.683 2.355-2.054 0-4.112-.786-5.68-2.355-3.144-3.138-3.144-8.226 0-11.368l28.123-28.127v-104.201l-16.761 16.76c-1.565 1.569-3.626 2.356-5.683 2.356-2.054 0-4.112-.787-5.68-2.356-3.144-3.137-3.144-8.225 0-11.367l28.124-28.127v-15.354c-21.26.729-38.341 18.206-38.341 39.641v68.832l16.764-16.764c3.136-3.139 8.23-3.139 11.365 0 3.141 3.138 3.141 8.229 0 11.367l-28.129 28.13v104.205l16.764-16.768c3.136-3.139 8.23-3.139 11.365 0 3.141 3.139 3.141 8.229 0 11.366l-28.129 28.129v104.201l16.764-16.762c3.136-3.135 8.227-3.138 11.367.004 3.139 3.137 3.139 8.226-.002 11.367l-28.129 28.124v42.994c.001 21.434 17.082 38.914 38.341 39.646zm142.417-39.645v-42.996l-28.125-28.125c-3.143-3.139-3.143-8.228 0-11.364 3.133-3.142 8.229-3.142 11.361 0l16.764 16.762v-104.2l-28.131-28.134c-3.137-3.141-3.137-8.228.006-11.366 3.133-3.139 8.224-3.139 11.367 0l16.758 16.763v-104.199l-28.131-28.131c-3.137-3.141-3.137-8.229.006-11.367 3.133-3.139 8.224-3.139 11.367 0l16.758 16.757v-68.826c0-21.436-17.085-38.914-38.344-39.641v15.354l28.129 28.128c3.143 3.138 3.143 8.226 0 11.367-1.567 1.569-3.627 2.356-5.682 2.356s-4.114-.787-5.682-2.356l-16.764-16.765v104.205l28.129 28.127c3.143 3.139 3.143 8.228 0 11.368-1.567 1.569-3.627 2.355-5.682 2.355s-4.114-.786-5.682-2.355l-16.766-16.764v104.205l28.129 28.13c3.143 3.139 3.143 8.225 0 11.362-1.567 1.573-3.627 2.356-5.682 2.356s-4.114-.783-5.682-2.356l-16.766-16.765v104.208l28.129 28.129c3.143 3.137 3.143 8.226 0 11.364-1.567 1.568-3.627 2.354-5.682 2.354s-4.114-.785-5.682-2.354l-16.766-16.769v48.827c21.262-.727 38.346-18.205 38.346-39.644zm259.47-343.418c0-46.715-38.008-84.719-84.724-84.719-46.719 0-84.727 38.004-84.727 84.719 0 39.598 26.92 73.496 65.464 82.431 3.644.843 6.219 4.09 6.219 7.831v17.442h26.084v-17.442c0-3.74 2.575-6.987 6.219-7.831 38.544-8.935 65.465-42.833 65.465-82.431zm-84.723-78.767c-43.37 0-78.65 35.334-78.65 78.767 0 14.191 3.809 28.09 11.011 40.195 2.276 3.816 7.211 5.063 11.02 2.793 3.813-2.271 5.065-7.203 2.796-11.015-5.809-9.757-8.752-20.513-8.752-31.973 0-34.568 28.07-62.691 62.576-62.691 34.502 0 62.574 28.123 62.574 62.691 0 11.46-2.945 22.216-8.753 31.973-2.27 3.812-1.019 8.744 2.797 11.015 1.289.767 2.703 1.132 4.103 1.132 2.741 0 5.41-1.399 6.916-3.925 7.203-12.105 11.012-26.004 11.012-40.195-.002-43.432-35.283-78.767-78.65-78.767zm34.589 45.053-16.004 21.884c2.191 3.429 3.497 7.471 3.497 11.831 0 12.18-9.905 22.093-22.083 22.093-12.18 0-22.088-9.913-22.088-22.093 0-12.178 9.908-22.088 22.088-22.088 1.939 0 3.79.332 5.582.804l16.027-21.919c2.623-3.579 7.656-4.365 11.231-1.744 3.588 2.619 4.367 7.646 1.75 11.232zm-28.577 33.714c0-3.313-2.7-6.011-6.013-6.011-3.316 0-6.016 2.698-6.016 6.011 0 3.317 2.699 6.015 6.016 6.015 3.313 0 6.013-2.698 6.013-6.015z"/></svg>