<svg id="Layer_1" enable-background="new 0 0 512 512" viewBox="0 0 512 512" xmlns="http://www.w3.org/2000/svg"><path d="m200 293.76c-29.23 0-53.01 23.78-53.01 53.01s23.78 53.01 53.01 53.01 53.01-23.78 53.01-53.01-23.78-53.01-53.01-53.01zm0 94.02c-22.61 0-41.01-18.4-41.01-41.01s18.4-41.01 41.01-41.01 41.01 18.4 41.01 41.01-18.4 41.01-41.01 41.01zm92.69-63.24h-3.44c-6.02 0-10.97-3.32-13.25-8.89l-.25-.6c-2.33-5.55-1.18-11.41 3.08-15.66l2.43-2.43c1.95-1.95 3.03-4.55 3.03-7.32s-1.07-5.37-3.03-7.32l-16.8-16.81c-4.04-4.04-10.6-4.04-14.64 0l-2.44 2.44c-4.26 4.26-10.11 5.41-15.66 3.08l-.6-.25c-5.56-2.28-8.89-7.23-8.89-13.25v-3.45c0-5.71-4.64-10.35-10.35-10.35h-23.77c-5.71 0-10.35 4.64-10.35 10.35v3.44c0 5.92-3.22 10.81-8.63 13.13v-77.59h39.32c3.31 0 6-2.69 6-6v-86.56c0-3.31-2.69-6-6-6h-187.45c-3.31 0-6 2.69-6 6v86.57c0 3.31 2.69 6 6 6h39.32v222.15c0 3.31 2.69 6 6 6h62.41l6.81 6.81c1.95 1.95 4.55 3.03 7.32 3.03s5.37-1.08 7.32-3.03l2.44-2.44c4.26-4.26 10.11-5.41 15.67-3.08l.59.24c5.56 2.28 8.89 7.24 8.89 13.25v3.45c0 5.71 4.64 10.35 10.35 10.35h23.77c5.71 0 10.35-4.64 10.35-10.35v-3.45c0-6.02 3.32-10.97 8.88-13.25l.6-.25c5.55-2.33 11.41-1.18 15.66 3.08l2.44 2.44c1.95 1.95 4.55 3.03 7.32 3.03s5.37-1.08 7.32-3.03l16.8-16.8c1.95-1.95 3.03-4.55 3.03-7.32s-1.07-5.37-3.03-7.32l-2.43-2.43c-4.26-4.26-5.41-10.11-3.08-15.66l.25-.6c2.28-5.56 7.24-8.89 13.25-8.89h3.44c5.71 0 10.35-4.64 10.35-10.35v-23.77c0-5.7-4.64-10.34-10.35-10.34zm-171.52 69.62-.47.47-48.38-12.96v-23.87l26.82 7.19c1.9 2.44 4.85 4.03 8.18 4.03h3.44c6.01 0 10.97 3.32 13.25 8.89l.25.59c2.32 5.54 1.17 11.4-3.09 15.66zm35.97-134.91-84.82-22.73v-23.86l84.82 22.73zm-60.18 75.64v17.09l-24.64-6.6v-23.86l26.73 7.16c-1.3 1.73-2.09 3.88-2.09 6.21zm22.47-13.18-47.1-12.62v-23.86l47.39 12.7 1.46 1.46c4.26 4.26 5.41 10.11 3.08 15.67l-.24.59c-1.04 2.51-2.62 4.56-4.59 6.06zm-.69-39.4c-.73.73-1.34 1.55-1.81 2.44l-44.6-11.95v-23.86l62.93 16.86zm-37.02-101.24v-74.57h66.03v74.57zm120.74 0h-42.72v-74.57h42.72zm-175.46-74.57h42.72v74.57h-42.72zm130.14 86.57v29.89l-84.82-22.73v-7.16zm-84.82 201.01 43.56 11.67c.22 1.23.66 2.41 1.31 3.47h-44.87zm218.72-37.07h-1.8c-10.89 0-20.22 6.26-24.35 16.33l-.21.51c-4.21 10.05-2.04 21.08 5.66 28.79l1.27 1.27-14.48 14.48-1.27-1.27c-7.71-7.71-18.74-9.88-28.79-5.66l-.5.21c-10.08 4.13-16.33 13.46-16.33 24.35v1.8h-20.47v-1.8c0-10.89-6.26-20.22-16.34-24.36l-.5-.21c-10.05-4.21-21.08-2.05-28.79 5.66l-1.27 1.27-14.48-14.48 1.27-1.27c7.71-7.71 9.88-18.74 5.66-28.79l-.21-.5c-4.13-10.08-13.46-16.33-24.35-16.33h-1.8v-20.47h1.8c10.89 0 20.22-6.26 24.36-16.34l.21-.5c4.21-10.05 2.05-21.08-5.66-28.79l-1.27-1.27 14.48-14.48 1.27 1.27c7.71 7.71 18.74 9.88 28.79 5.66l.51-.21c10.08-4.13 16.34-13.46 16.34-24.35v-1.8h20.47v1.8c0 10.89 6.26 20.22 16.34 24.35l.5.21c10.05 4.21 21.08 2.04 28.79-5.66l1.27-1.27 14.48 14.48-1.27 1.27c-7.71 7.71-9.88 18.74-5.66 28.78l.21.52c4.13 10.08 13.46 16.33 24.35 16.33h1.8v20.47zm119.42-172.57c-41.95 0-86.54 12.75-86.54 36.39v192.6c0 23.64 44.59 36.39 86.54 36.39s86.54-12.76 86.54-36.4v-192.6c0-23.63-44.59-36.38-86.54-36.38zm0 12c46.18 0 74.54 14.21 74.54 24.39s-28.36 24.39-74.54 24.39-74.54-14.21-74.54-24.39 28.35-24.39 74.54-24.39zm-74.55 73.95c4.23 2.97 9.42 5.57 15.28 7.78v118.95c-9.9-4.46-15.28-9.66-15.28-14.09zm106.67 134.48v-119.77c5.24-.84 10.33-1.89 15.14-3.14v119.5c-4.54 1.32-9.6 2.47-15.14 3.41zm-12 1.6c-4.57.45-9.4.74-14.46.87v-119.81c4.84-.13 9.68-.43 14.46-.89zm-26.46.85c-5.06-.15-9.89-.46-14.46-.92v-119.83c4.78.48 9.62.79 14.46.94zm-26.46-2.57c-5.27-.92-10.11-2.03-14.46-3.29v-119.5c4.61 1.2 9.46 2.21 14.46 3.04zm32.8 33.06c-46.18 0-74.54-14.21-74.54-24.39v-11.21c16.08 11.28 45.92 17.21 74.54 17.21s58.46-5.94 74.54-17.21v11.21c0 10.19-28.36 24.39-74.54 24.39zm59.26-40.68v-118.95c5.87-2.22 11.05-4.82 15.28-7.78v112.64c0 4.43-5.39 9.63-15.28 14.09zm-59.26-121.52c-46.18 0-74.54-14.21-74.54-24.39v-11.22c16.08 11.28 45.92 17.21 74.54 17.21s58.46-5.93 74.54-17.21v11.21c0 10.19-28.36 24.4-74.54 24.4zm0-38.41c16.13 0 33.49-5.12 33.49-16.37s-17.36-16.37-33.49-16.37-33.49 5.12-33.49 16.37 17.36 16.37 33.49 16.37zm0-20.75c11.14 0 18.33 2.65 20.81 4.37-2.48 1.72-9.67 4.37-20.81 4.37s-18.33-2.65-20.81-4.37c2.48-1.72 9.66-4.37 20.81-4.37zm-81.45-60.4c0 3.31 2.69 6 6 6h21.69c3.31 0 6-2.69 6-6v-17.87h44.26c6.89 0 12.61-5.06 13.69-11.65h20.72c3.31 0 6-2.69 6-6v-16.83c0-3.31-2.69-6-6-6h-20.72c-1.07-6.59-6.79-11.65-13.69-11.65h-44.26v-17.86c0-3.31-2.69-6-6-6h-21.69c-3.31 0-6 2.69-6 6v4.81h-15.69c-3.31 0-6 2.69-6 6v2.62h-17.12-22.8-13.49c-8.62 0-15.62 7.01-15.62 15.62v29.74c0 8.62 7.01 15.62 15.62 15.62h13.49 22.8 17.12v2.62c0 3.31 2.69 6 6 6h15.69zm106.35-41.52h-14.52v-4.83h14.52zm-28.41-16.48c1.02 0 1.88.86 1.88 1.88v24.36c0 1.02-.86 1.88-1.88 1.88h-44.25v-28.12zm-65.94-23.86h9.69v75.86h-9.69zm-90.72 52.79v-29.73c0-1.96 1.66-3.62 3.62-3.62h7.49v36.99h-7.49c-1.96-.01-3.62-1.67-3.62-3.64zm23.11 3.63v-36.99h10.8v36.99zm22.81 0v-36.99h11.12v36.99zm23.11 8.62v-54.23h9.69v54.22h-9.69z"/></svg>