<?xml version="1.0" encoding="iso-8859-1"?>
<!-- Generator: Adobe Illustrator 19.0.0, SVG Export Plug-In . SVG Version: 6.00 Build 0)  -->
<svg version="1.1" id="Capa_1" xmlns="http://www.w3.org/2000/svg" xmlns:xlink="http://www.w3.org/1999/xlink" x="0px" y="0px"
	 viewBox="0 0 295.239 295.239" style="enable-background:new 0 0 295.239 295.239;" xml:space="preserve">
<path d="M161.904,33.333H28.571V100h133.333L161.904,33.333L161.904,33.333z M152.381,90.476L152.381,90.476H38.095V42.857h114.286
	L152.381,90.476L152.381,90.476z M95.238,133.333c-28.881,0-52.381,23.5-52.381,52.381s23.5,52.381,52.381,52.381
	s52.381-23.5,52.381-52.381S124.119,133.333,95.238,133.333z M56.338,203.595c-2.514-5.452-3.957-11.495-3.957-17.881
	c0-23.633,19.224-42.857,42.857-42.857c6.386,0,12.429,1.443,17.881,3.957L56.338,203.595z M61.433,211.967l60.052-60.052
	c2.824,2.195,5.357,4.729,7.552,7.552l-60.052,60.052C66.167,217.324,63.629,214.786,61.433,211.967z M138.095,185.714
	c0,23.634-19.224,42.857-42.857,42.857c-6.386,0-12.429-1.443-17.881-3.957l56.781-56.781
	C136.652,173.285,138.095,179.328,138.095,185.714z M90.476,119.048H100v9.524h-9.524V119.048z M90.476,242.857H100v9.524h-9.524
	V242.857z M152.381,180.952h9.524v9.524h-9.524V180.952z M28.571,180.952h9.524v9.524h-9.524V180.952z M146.226,144.252
	l-6.734,6.734l-9.523-9.523l6.734-6.734L146.226,144.252z M53.774,236.701l-9.523-9.523l6.734-6.734l9.523,9.523L53.774,236.701z
	 M136.701,236.702l-6.734-6.734l9.523-9.523l6.734,6.734L136.701,236.702z M60.511,141.464l-9.523,9.523l-6.734-6.734l9.523-9.523
	L60.511,141.464z M47.619,52.381h9.524v28.571h-9.524V52.381z M66.667,52.381h9.524v28.571h-9.524V52.381z M133.333,52.381h9.524
	v9.524h-9.524V52.381z M85.714,52.381h9.524v9.524h-9.524V52.381z M133.333,71.429h9.524v9.524h-9.524V71.429z M295.238,66.667
	h-4.762V33.333h-9.524V0h-9.524v33.333h-9.524v33.333h-4.762v9.524h4.762v38.095c0,6.2,3.995,11.438,9.524,13.41v91.352
	c0,31.51-25.633,57.143-57.143,57.143h-23.81v-28.571H200c18.376,0,33.333-14.957,33.333-33.333v-86.59
	c5.529-1.971,9.524-7.21,9.524-13.41V76.19h4.762v-9.524h-4.762V33.333h-9.524V0h-9.524v33.333h-9.524v33.333h-4.762v9.524h4.762
	v38.095c0,6.2,3.995,11.438,9.524,13.41v86.59c0,13.129-10.681,23.81-23.81,23.81h-9.524V14.286C190.476,6.41,184.067,0,176.19,0
	H14.286C6.41,0,0,6.41,0,14.286v266.667c0,7.876,6.41,14.286,14.286,14.286H176.19c6.2,0,11.438-3.995,13.41-9.524h24.686
	c36.762,0,66.667-29.905,66.667-66.667v-91.352c5.529-1.971,9.524-7.21,9.524-13.41V76.19h4.762L295.238,66.667L295.238,66.667z
	 M223.81,42.857h9.524v23.81h-9.524V42.857z M223.809,76.19h9.524v38.095c0,2.629-2.133,4.762-4.762,4.762s-4.762-2.133-4.762-4.762
	L223.809,76.19L223.809,76.19z M180.952,280.952c0,2.629-2.133,4.762-4.762,4.762H14.286c-2.629,0-4.762-2.133-4.762-4.762V14.286
	c0-2.629,2.133-4.762,4.762-4.762H176.19c2.629,0,4.762,2.133,4.762,4.762V280.952z M280.952,114.286
	c0,2.629-2.133,4.762-4.762,4.762c-2.629,0-4.762-2.133-4.762-4.762V76.19h9.524V114.286z M280.953,66.667h-9.524v-23.81h9.524
	V66.667z M19.048,261.905h19.048v9.524H19.048V261.905z M152.381,261.905h19.048v9.524h-19.048V261.905z"/>
<g>
</g>
<g>
</g>
<g>
</g>
<g>
</g>
<g>
</g>
<g>
</g>
<g>
</g>
<g>
</g>
<g>
</g>
<g>
</g>
<g>
</g>
<g>
</g>
<g>
</g>
<g>
</g>
<g>
</g>
</svg>
