<svg id="Capa_1" enable-background="new 0 0 512 512" height="512" viewBox="0 0 512 512" width="512" xmlns="http://www.w3.org/2000/svg"><g><g><path d="m211.83 256c0 24.356 19.815 44.171 44.171 44.171s44.171-19.815 44.171-44.171-19.816-44.171-44.172-44.171-44.17 19.815-44.17 44.171zm44.17-29.176c16.088 0 29.176 13.088 29.176 29.176s-13.088 29.176-29.176 29.176-29.176-13.089-29.176-29.176 13.088-29.176 29.176-29.176z"/><path d="m469.465 353.259-19.56-11.293 8.893-2.053c5.856-1.353 10.836-4.905 14.021-10.003s4.194-11.131 2.842-16.987c-1.352-5.857-4.904-10.837-10.002-14.022s-11.132-4.194-16.988-2.842l-55.915 12.911-55.948-32.302c1.729-6.75 2.603-13.679 2.603-20.669s-.874-13.918-2.603-20.669l55.948-32.301 55.915 12.911c5.854 1.353 11.889.344 16.988-2.842 5.098-3.185 8.65-8.165 10.002-14.021 1.353-5.857.344-11.89-2.841-16.989-3.185-5.098-8.165-8.65-14.022-10.002l-8.892-2.053 19.559-11.292c5.206-3.005 8.93-7.858 10.486-13.665s.758-11.871-2.248-17.077c-6.204-10.747-19.994-14.442-30.741-8.237l-19.56 11.292 2.668-8.728c1.757-5.749 1.17-11.837-1.652-17.145-2.823-5.308-7.543-9.198-13.29-10.955-5.749-1.758-11.838-1.171-17.144 1.651-5.308 2.822-9.198 7.543-10.955 13.291l-16.776 54.88-55.966 32.313c-10.006-9.761-22.396-16.925-35.782-20.689v-15.428c0-4.141-3.357-7.497-7.497-7.497s-7.497 3.357-7.497 7.497v21.33c0 3.572 2.521 6.648 6.023 7.351 14.497 2.907 27.912 10.663 37.773 21.839 2.361 2.676 6.281 3.316 9.37 1.532l63.632-36.738c1.643-.949 2.866-2.486 3.421-4.301l17.64-57.705c.586-1.918 1.885-3.493 3.656-4.434 1.772-.942 3.803-1.136 5.721-.551 1.918.586 3.492 1.884 4.434 3.655s1.138 3.803.552 5.721l-8.232 26.928c-.901 2.945.092 6.142 2.503 8.059 2.41 1.917 5.748 2.166 8.416.625l36.042-20.809c3.585-2.07 8.187-.838 10.258 2.749 1.003 1.737 1.269 3.76.75 5.698-.519 1.937-1.762 3.556-3.499 4.559l-36.041 20.809c-2.668 1.54-4.122 4.555-3.666 7.601.455 3.046 2.727 5.504 5.728 6.197l27.436 6.335c1.954.452 3.616 1.637 4.679 3.337 1.063 1.701 1.399 3.714.948 5.669-.451 1.954-1.637 3.615-3.337 4.678-1.702 1.063-3.715 1.4-5.669.948l-58.793-13.575c-1.849-.427-3.791-.136-5.436.812l-63.618 36.73c-3.091 1.785-4.495 5.5-3.357 8.883 2.372 7.052 3.575 14.394 3.575 21.82s-1.203 14.768-3.575 21.82c-1.138 3.383.267 7.099 3.357 8.884l63.618 36.73c1.645.95 3.587 1.239 5.436.812l58.793-13.576c1.953-.452 3.968-.116 5.669.948 1.701 1.063 2.886 2.724 3.337 4.679.452 1.954.115 3.966-.948 5.667-1.063 1.702-2.724 2.887-4.679 3.338l-27.436 6.336c-3.001.693-5.273 3.151-5.728 6.197s.999 6.061 3.666 7.601l36.042 20.809c1.737 1.003 2.979 2.622 3.499 4.559.519 1.938.253 3.961-.75 5.698s-2.622 2.979-4.56 3.499c-1.936.519-3.961.252-5.698-.75l-36.042-20.808c-2.667-1.54-6.005-1.292-8.416.625-2.41 1.917-3.403 5.114-2.503 8.059l8.232 26.928c.587 1.918.391 3.95-.551 5.72-.942 1.771-2.517 3.069-4.436 3.656-1.919.586-3.95.39-5.72-.551-1.771-.942-3.069-2.517-3.656-4.435l-17.64-57.704c-.555-1.815-1.778-3.352-3.421-4.301l-63.632-36.738c-3.09-1.784-7.01-1.143-9.37 1.532-9.861 11.175-23.276 18.931-37.772 21.839-3.503.702-6.023 3.778-6.023 7.351v73.449c0 1.898.72 3.725 2.014 5.114l41.154 44.129c1.368 1.467 2.083 3.379 2.013 5.383s-.916 3.861-2.383 5.23c-1.467 1.368-3.376 2.092-5.382 2.012-2.005-.07-3.862-.916-5.23-2.383l-19.205-20.593c-2.1-2.253-5.367-2.991-8.231-1.862-2.866 1.129-4.749 3.896-4.749 6.976v41.617c0 4.141-3.369 7.51-7.51 7.51s-7.509-3.369-7.509-7.51v-41.617c0-3.08-1.884-5.847-4.749-6.976-2.866-1.128-6.13-.39-8.231 1.862l-19.205 20.593c-1.368 1.467-3.225 2.313-5.23 2.383-1.997.065-3.915-.645-5.383-2.014-1.467-1.368-2.314-3.225-2.383-5.229-.07-2.005.645-3.917 2.013-5.383l41.154-44.129c1.294-1.388 2.014-3.216 2.014-5.114v-73.45c0-3.572-2.521-6.648-6.023-7.351-14.497-2.907-27.911-10.663-37.772-21.838-2.36-2.676-6.28-3.316-9.37-1.532l-63.632 36.738c-1.644.949-2.866 2.486-3.421 4.301l-4.983 16.302c-1.211 3.96 1.019 8.151 4.978 9.362 3.959 1.209 8.151-1.019 9.361-4.978l4.12-13.478 55.967-32.313c10.006 9.761 22.395 16.924 35.781 20.689v64.594l-39.139 41.969c-4.1 4.396-6.242 10.125-6.033 16.133.209 6.007 2.746 11.573 7.142 15.672 4.395 4.101 10.127 6.243 16.133 6.034 6.008-.209 11.574-2.746 15.673-7.143l6.224-6.674v22.585c-.005 12.414 10.09 22.51 22.499 22.51s22.504-10.096 22.504-22.504v-22.586l6.224 6.674c4.1 4.396 9.666 6.932 15.673 7.142 6.013.216 11.737-1.933 16.133-6.032 4.396-4.1 6.933-9.666 7.142-15.674.209-6.007-1.933-11.737-6.033-16.133l-39.139-41.969v-64.594c13.386-3.764 25.775-10.928 35.781-20.689l55.967 32.313 16.776 54.879c1.757 5.749 5.647 10.469 10.955 13.292 5.307 2.822 11.396 3.409 17.143 1.651 5.749-1.757 10.47-5.647 13.292-10.955s3.409-11.396 1.651-17.145l-2.668-8.727 19.56 11.292c5.205 3.005 11.268 3.803 17.076 2.248 5.806-1.556 10.659-5.279 13.665-10.485 3.006-5.205 3.804-11.27 2.248-17.077-1.556-5.804-5.279-10.657-10.485-13.662z"/><path d="m122.771 384.379c-3.961-1.211-8.151 1.019-9.361 4.978l-2.778 9.088c-.586 1.918-1.885 3.493-3.655 4.435-1.772.942-3.803 1.137-5.722.551-1.918-.586-3.493-1.885-4.435-3.656-.942-1.77-1.137-3.802-.551-5.72l8.232-26.927c.901-2.946-.092-6.142-2.503-8.06-2.411-1.917-5.748-2.166-8.416-.625l-36.042 20.808c-1.737 1.004-3.762 1.27-5.698.75-1.937-.519-3.556-1.761-4.559-3.499-1.003-1.737-1.27-3.76-.75-5.698.519-1.937 1.762-3.556 3.499-4.559l36.042-20.809c2.668-1.54 4.122-4.555 3.666-7.601-.455-3.046-2.727-5.504-5.728-6.197l-27.436-6.336c-1.955-.452-3.616-1.637-4.68-3.338-1.063-1.701-1.4-3.714-.948-5.668s1.637-3.616 3.338-4.679c1.7-1.063 3.713-1.401 5.668-.948l58.793 13.576c1.849.427 3.791.137 5.436-.812l63.618-36.73c3.091-1.785 4.495-5.5 3.357-8.883-2.372-7.053-3.575-14.394-3.575-21.821s1.203-14.768 3.575-21.82c1.138-3.383-.267-7.099-3.357-8.883l-63.618-36.73c-1.645-.95-3.587-1.239-5.436-.812l-58.793 13.576c-1.954.452-3.967.115-5.668-.948s-2.886-2.724-3.338-4.679c-.451-1.955-.115-3.968.948-5.669s2.724-2.886 4.68-3.337l27.436-6.335c3.001-.693 5.273-3.151 5.728-6.197s-.999-6.061-3.666-7.601l-36.042-20.809c-1.737-1.003-2.979-2.622-3.499-4.559-.519-1.938-.253-3.961.75-5.698s2.622-2.979 4.56-3.499c1.938-.519 3.961-.252 5.698.75l36.041 20.809c2.667 1.54 6.005 1.293 8.416-.625 2.411-1.917 3.404-5.114 2.503-8.059l-8.232-26.928c-1.21-3.96 1.026-8.167 4.986-9.377 1.918-.585 3.95-.391 5.721.551s3.069 2.517 3.655 4.435l17.639 57.704c.555 1.815 1.777 3.352 3.421 4.301l63.632 36.738c3.091 1.784 7.01 1.143 9.37-1.532 9.861-11.175 23.276-18.931 37.772-21.839 3.503-.702 6.023-3.778 6.023-7.351v-73.45c0-1.898-.72-3.725-2.014-5.114l-41.154-44.129c-1.368-1.467-2.083-3.379-2.013-5.383s.916-3.861 2.384-5.23c1.467-1.368 3.377-2.084 5.383-2.013 2.004.07 3.861.916 5.23 2.383l19.204 20.593c2.1 2.253 5.363 2.99 8.231 1.862 2.866-1.129 4.749-3.896 4.749-6.976v-41.615c0-4.141 3.368-7.509 7.509-7.509s7.51 3.369 7.51 7.509v41.617c0 3.08 1.884 5.847 4.749 6.976s6.131.391 8.231-1.862l19.205-20.593c2.824-3.028 7.585-3.195 10.613-.369 1.467 1.368 2.313 3.225 2.383 5.229.07 2.005-.645 3.917-2.013 5.383l-41.154 44.129c-1.294 1.388-2.014 3.216-2.014 5.114v17.417c0 4.141 3.357 7.497 7.497 7.497s7.497-3.357 7.497-7.497v-14.465l39.139-41.969c4.1-4.396 6.242-10.125 6.033-16.133s-2.746-11.574-7.142-15.673c-9.074-8.463-23.342-7.965-31.806 1.109l-6.224 6.674v-22.584c.003-12.409-10.093-22.504-22.501-22.504s-22.504 10.095-22.504 22.504v22.585l-6.223-6.673c-4.1-4.397-9.666-6.934-15.674-7.143-6.014-.201-11.737 1.934-16.132 6.033-4.396 4.1-6.933 9.666-7.143 15.673-.21 6.008 1.933 11.737 6.033 16.133l39.139 41.969v64.594c-13.387 3.764-25.776 10.928-35.781 20.689l-55.967-32.313-16.776-54.88c-1.757-5.749-5.648-10.469-10.955-13.291s-11.396-3.409-17.144-1.651c-11.866 3.626-18.57 16.231-14.943 28.099l2.668 8.728-19.559-11.292c-5.206-3.006-11.272-3.803-17.077-2.248-5.806 1.556-10.659 5.279-13.665 10.485-3.006 5.205-3.804 11.27-2.248 17.077 1.556 5.806 5.279 10.659 10.485 13.664l19.559 11.293-8.891 2.053c-5.857 1.352-10.838 4.904-14.023 10.002s-4.194 11.131-2.841 16.988c1.352 5.857 4.905 10.837 10.002 14.021 5.098 3.185 11.131 4.195 16.988 2.842l55.915-12.911 55.948 32.301c-1.729 6.75-2.603 13.679-2.603 20.669 0 6.991.874 13.918 2.603 20.669l-55.948 32.301-55.915-12.911c-5.856-1.353-11.89-.344-16.988 2.842-5.098 3.185-8.65 8.165-10.002 14.021-1.353 5.857-.344 11.89 2.842 16.988 3.185 5.098 8.165 8.65 14.022 10.003l8.892 2.053-19.559 11.292c-5.206 3.005-8.93 7.859-10.486 13.665s-.758 11.871 2.248 17.076c3.005 5.206 7.858 8.93 13.665 10.486 5.807 1.557 11.871.758 17.077-2.248l19.559-11.292-2.668 8.726c-1.758 5.749-1.171 11.838 1.651 17.145s7.543 9.198 13.291 10.955c2.174.665 4.397.994 6.608.994 3.634 0 7.237-.89 10.537-2.645 5.307-2.822 9.198-7.542 10.955-13.291l2.778-9.088c1.21-3.96-1.019-8.151-4.979-9.362z"/></g></g></svg>