<svg id="Layer_1" viewBox="0 0 128 128" xmlns="http://www.w3.org/2000/svg"><g style="fill:none;stroke:#000;stroke-linecap:square;stroke-linejoin:round;stroke-miterlimit:10;stroke-width:4"><path d="m59 46.2c3.5-3.5 0-7.1 0-7.1s-23.3-23.3-26.9-26.8-7.1 0-7.1 0l-19.7 19.8s-3.5 3.5 0 7.1 26.8 26.8 26.8 26.8 3.5 3.5 7.1 0z"/><path d="m7.4 41.3 26.9-26.9"/><path d="m13 46.9 26.9-26.9"/><ellipse cx="37.8" cy="44.8" rx="8" ry="8" transform="matrix(.707 -.707 .707 .707 -20.602 39.837)"/><ellipse cx="89.4" cy="96.4" rx="12" ry="12" transform="matrix(.707 -.707 .707 .707 -41.983 91.456)"/><path d="m96 116.6 13.6-13.6c-1-3.7-.2-7.8 2.4-10.8l-18.4-18.5c-3.1 2.6-7.1 3.4-10.8 2.4l-13.6 13.7c1 3.7.2 7.8-2.4 10.8l18.5 18.5c3-2.6 7-3.4 10.7-2.5z"/><path d="m76.7 109.1 4.2-4.2"/><path d="m97.9 87.9 4.2-4.2"/><path d="m45.6 59.6 26.8 26.9"/><path d="m52.6 52.6 26.9 26.8"/><path d="m88.8 66c3.5 3.5 7.1 0 7.1 0s23.3-23.3 26.9-26.9c3.5-3.5 0-7.1 0-7.1l-19.8-19.8s-3.5-3.5-7.1 0c-3.6 3.6-26.9 26.9-26.9 26.9s-3.5 3.5 0 7.1z"/><path d="m93.7 14.4 26.9 26.9"/><path d="m88.1 20 26.9 26.9"/><ellipse cx="90.2" cy="44.8" rx="8" ry="8" transform="matrix(.707 -.707 .707 .707 -5.246 76.908)"/><ellipse cx="38.6" cy="96.4" rx="12" ry="12" transform="matrix(.707 -.707 .707 .707 -56.865 55.527)"/><path d="m18.4 103 13.6 13.6c3.7-1 7.8-.2 10.8 2.4l18.5-18.5c-2.6-3.1-3.4-7.1-2.4-10.8l-13.7-13.5c-3.7 1-7.8.2-10.8-2.4l-18.5 18.4c2.6 3.1 3.4 7.1 2.5 10.8z"/><path d="m25.9 83.7 4.2 4.2"/><path d="m47.1 104.9 4.2 4.2"/><path d="m56.9 71-8.4 8.4"/><path d="m75.4 52.6-11.2 11.1"/><path d="m64 78.1-8.4 8.4"/><path d="m82.4 59.6-11.1 11.2"/></g></svg>