<svg id="Layer_1" enable-background="new 0 0 512 512" viewBox="0 0 512 512" xmlns="http://www.w3.org/2000/svg"><path d="m413.3 149.2c1.3 1.3 2.1 3.1 2.1 5v253.1c0 3.9-3.1 7-7 7h-304.8c-3.9 0-7-3.1-7-7v-53.3c0-3.9 3.1-7 7-7s7 3.1 7 7v46.3h290.7v-243.3l-45.3-45.3h-245.4v180.3c0 3.9-3.1 7-7 7s-7-3.1-7-7v-187.2c0-3.9 3.1-7 7-7h255.4c1.9 0 3.6.7 5 2.1zm43.1-8.5v20.9h48.6c3.9 0 7 3.1 7 7s-3.1 7-7 7h-48.6v20.9h48.6c3.9 0 7 3.1 7 7s-3.1 7-7 7h-48.6v20.9h48.6c3.9 0 7 3.1 7 7s-3.1 7-7 7h-48.6v20.9h48.6c3.9 0 7 3.1 7 7s-3.1 7-7 7h-48.6v20.9h48.6c3.9 0 7 3.1 7 7s-3.1 7-7 7h-48.6v20.9h48.6c3.9 0 7 3.1 7 7s-3.1 7-7 7h-48.6v20.9h48.6c3.9 0 7 3.1 7 7s-3.1 7-7 7h-48.6v20.9h48.6c3.9 0 7 3.1 7 7s-3.1 7-7 7h-48.6v5c0 16.6-13.5 30.1-30 30.1h-6v48.6c0 3.9-3.1 7-7 7s-7-3.1-7-7v-48.6h-20.9v48.6c0 3.9-3.1 7-7 7s-7-3.1-7-7v-48.6h-20.9v48.6c0 3.9-3.1 7-7 7s-7-3.1-7-7v-48.6h-20.9v48.6c0 3.9-3.1 7-7 7s-7-3.1-7-7v-48.6h-20.9v48.6c0 3.9-3.1 7-7 7s-7-3.1-7-7v-48.6h-20.9v48.6c0 3.9-3.1 7-7 7s-7-3.1-7-7v-48.6h-20.9v48.6c0 3.9-3.1 7-7 7s-7-3.1-7-7v-48.6h-20.9v48.6c0 3.9-3.1 7-7 7s-7-3.1-7-7v-48.6h-20.9v48.6c0 3.9-3.1 7-7 7s-7-3.1-7-7v-48.6h-20.9v48.6c0 3.9-3.1 7-7 7s-7-3.1-7-7v-48.6h-6c-16.6 0-30.1-13.5-30.1-30.1v-5h-49.2c-3.9 0-7-3.1-7-7s3.1-7 7-7h48.6v-20.9h-48.6c-3.9 0-7-3.1-7-7s3.1-7 7-7h48.6v-20.9h-48.6c-3.9 0-7-3.1-7-7s3.1-7 7-7h48.6v-20.9h-48.6c-3.9 0-7-3.1-7-7s3.1-7 7-7h48.6v-20.9h-48.6c-3.9 0-7-3.1-7-7s3.1-7 7-7h48.6v-20.9h-48.6c-3.9 0-7-3.1-7-7s3.1-7 7-7h48.6v-20.9h-48.6c-3.9 0-7-3.1-7-7s3.1-7 7-7h48.6v-20.9h-48.6c-3.9 0-7-3.1-7-7s3.1-7 7-7h48.6v-20.9h-48.6c-3.9 0-7-3.1-7-7s3.1-7 7-7h48.6v-20.9h-48.6c-3.9 0-7-3.1-7-7s3.1-7 7-7h48.6v-4.9c0-16.6 13.5-30.1 30.1-30.1h6v-48.7c0-3.9 3.1-7 7-7s7 3.1 7 7v48.6h20.9v-48.6c0-3.9 3.1-7 7-7s7 3.1 7 7v48.6h20.9v-48.6c0-3.9 3.1-7 7-7s7 3.1 7 7v48.6h20.9v-48.6c0-3.9 3.1-7 7-7s7 3.1 7 7v48.6h20.9v-48.6c0-3.9 3.1-7 7-7s7 3.1 7 7v48.6h20.9v-48.6c0-3.9 3.1-7 7-7s7 3.1 7 7v48.6h20.9v-48.6c0-3.9 3.1-7 7-7s7 3.1 7 7v48.6h20.9v-48.6c0-3.9 3.1-7 7-7s7 3.1 7 7v48.6h20.9v-48.6c0-3.9 3.1-7 7-7s7 3.1 7 7v48.6h20.9v-48.6c0-3.9 3.1-7 7-7s7 3.1 7 7v48.6h6c16.6 0 30 13.5 30 30.1v4.9h49.2c3.9 0 7 3.1 7 7s-3.1 7-7 7h-48.6v20.9h48.6c3.9 0 7 3.1 7 7s-3.1 7-7 7h-48.6zm-14.1-53.9c0-8.9-7.2-16.1-16-16.1h-340.6c-8.9 0-16.1 7.2-16.1 16.1v338.4c0 8.9 7.2 16.1 16.1 16.1h340.6c8.8 0 16-7.2 16-16.1zm-157.2 67.7-11.3 75.4 29.1-1.1c2.6-.1 4.9 1.2 6.3 3.4 1.3 2.2 1.3 4.9.1 7.1l-71.1 122.7c-1.3 2.2-3.6 3.5-6.1 3.5-.8 0-1.6-.1-2.4-.4-3.2-1.1-5.1-4.4-4.5-7.7l13.2-79.9h-29.7c-2.5 0-4.8-1.4-6.1-3.5s-1.2-4.9.1-7l69.4-117.1c1.7-2.9 5.2-4.1 8.4-3s5.1 4.3 4.6 7.6zm-19.1 89.7c-2.1.1-4.1-.8-5.5-2.3s-2-3.6-1.7-5.7l7.2-48.5-45 75.8h25.7c2.1 0 4 .9 5.3 2.5s1.9 3.6 1.6 5.7l-8.3 50.2 45.5-78.6z"/></svg>