<svg id="Layer_1" enable-background="new 0 0 512 512" viewBox="0 0 512 512" xmlns="http://www.w3.org/2000/svg"><path d="m204.76 287.71c0 3.31-2.69 6-6 6h-128.47c-3.31 0-6-2.69-6-6s2.69-6 6-6h128.48c3.3 0 5.99 2.69 5.99 6zm-6 34.74h-128.47c-3.31 0-6 2.69-6 6s2.69 6 6 6h128.48c3.31 0 6-2.69 6-6s-2.7-6-6.01-6zm0 40.74h-128.47c-3.31 0-6 2.69-6 6s2.69 6 6 6h128.48c3.31 0 6-2.69 6-6s-2.7-6-6.01-6zm0 40.74h-128.47c-3.31 0-6 2.69-6 6s2.69 6 6 6h128.48c3.31 0 6-2.69 6-6s-2.7-6-6.01-6zm282.85 55.8c-.01 1.59-.66 3.11-1.79 4.23l-31.87 31.32c-1.17 1.15-2.69 1.72-4.21 1.72-1.55 0-3.11-.6-4.28-1.79l-72.34-73.62c-1.12-1.14-1.73-2.67-1.72-4.26s.66-3.11 1.79-4.23l.68-.67-9.4-9.53v49.35c0 10.19-8.29 18.49-18.49 18.49h-291.11c-10.19 0-18.49-8.29-18.49-18.49v-372.69c0-10.2 8.29-18.49 18.49-18.49h85.63v-15.8c0-3.31 2.69-6 6-6h26.75v-18.27c0-3.31 2.69-6 6-6h42.35c3.31 0 6 2.69 6 6v18.26h26.75c3.31 0 6 2.69 6 6v15.8h85.63c10.2 0 18.49 8.29 18.49 18.49v177.03c23.18 15.1 38.55 41.23 38.55 70.89 0 15.75-4.34 30.49-11.86 43.13l12.44 12.62 1.47-1.44c2.36-2.32 6.16-2.29 8.48.07l72.34 73.62c1.12 1.14 1.74 2.67 1.72 4.26zm-302.36-420.47h30.35v-12.26h-30.35zm-32.74 43.61h95.84v-31.61h-95.84zm199.96 322c-10.42 4.6-21.92 7.17-34.02 7.17-46.63 0-84.56-37.94-84.56-84.56 0-46.63 37.94-84.56 84.56-84.56 12.1 0 23.6 2.57 34.02 7.17v-170.53c0-3.58-2.91-6.49-6.49-6.49h-85.63v15.8c0 3.31-2.69 6-6 6h-107.84c-3.31 0-6-2.69-6-6v-15.8h-85.64c-3.58 0-6.49 2.91-6.49 6.49v372.71c0 3.58 2.91 6.49 6.49 6.49h291.11c3.58 0 6.49-2.91 6.49-6.49zm38.55-77.39c0-40.01-32.55-72.56-72.56-72.56s-72.56 32.55-72.56 72.56 32.55 72.56 72.56 72.56 72.56-32.55 72.56-72.56zm-8.59 76.55 12.61-12.39-10.87-11.02c-3.72 4.59-7.91 8.79-12.49 12.51zm90.7 55.57-63.93-65.06-23.31 22.91 63.93 65.06zm-114.09-164.96c-2.49-2.19-6.28-1.95-8.47.53l-45.27 51.34-18.79-23.34c-2.08-2.58-5.85-2.99-8.44-.91-2.58 2.08-2.99 5.85-.91 8.44l23.25 28.89c1.11 1.38 2.77 2.2 4.54 2.24h.13c1.72 0 3.36-.74 4.5-2.03l49.98-56.68c2.2-2.5 1.96-6.29-.52-8.48zm-130.48-88.89-72.84.2c-3.09 12.16-14.12 21.18-27.22 21.18-13.05 0-24.05-8.95-27.19-21.03l-12.02.03c-.01 0-.01 0-.02 0-.5 0-1-.06-1.48-.19-5.26-1.34-8.94-6.07-8.94-11.5v-34.22c0-5.54 3.77-10.3 9.17-11.56l18.83-4.4c.67-.16 1.07-.4 1.51-.93l13.71-16.42c2.86-3.43 6.9-5.32 11.37-5.32h69.23c3.16 0 6.06.93 8.62 2.77l40.07 28.71h47.03c13.02 0 23.61 10.59 23.61 23.61v19.97c0 4.17-2.84 7.75-6.9 8.7-.44.1-.9.16-1.35.16l-30.62.08c-2.96 12.33-14.08 21.53-27.31 21.53-13.17 0-24.25-9.12-27.26-21.37zm43.35-6.71c0-8.87-7.22-16.09-16.09-16.09s-16.09 7.22-16.09 16.09 7.22 16.09 16.09 16.09c8.88-.01 16.09-7.22 16.09-16.09zm-112.45-65.45 14.7 11.87c5.75 4.65 13.51 7.61 16.32 7.61h40.28l-26.46-18.96c-.54-.39-.97-.52-1.63-.52zm-14.88 65.45c0-8.87-7.22-16.09-16.09-16.09s-16.09 7.22-16.09 16.09 7.22 16.09 16.09 16.09c8.88-.01 16.09-7.22 16.09-16.09zm111.25-28.09c13.62 0 25.01 9.75 27.55 22.64l26.62-.07v-16.83c0-6.4-5.21-11.61-11.61-11.61h-47.07-60.84c-7.24 0-17.7-5.29-23.86-10.28l-26.26-21.21h-6.93c-.92 0-1.56.3-2.15 1.01l-13.7 16.42c-2.1 2.52-4.8 4.18-8 4.93l-18.73 4.38v33.8l10-.03c2.34-13.14 13.84-23.15 27.64-23.15 13.75 0 25.21 9.93 27.61 22.99l72.14-.2c2.49-12.96 13.91-22.79 27.59-22.79z"/></svg>