<svg id="Capa_1" enable-background="new 0 0 512 512" height="512" viewBox="0 0 512 512" width="512" xmlns="http://www.w3.org/2000/svg"><g><g><path d="m166.11 358.574c19.531 0 36.183-12.541 42.368-29.999h95.044c6.185 17.458 22.837 29.999 42.368 29.999s36.183-12.541 42.368-29.999h29.544c8.274 0 14.982-6.716 14.982-15v-43.315c0-34.395-27.948-62.376-62.302-62.376h-22.616l-32.025-66.018c-2.506-5.166-7.739-8.447-13.476-8.447h-130.716c-5.737 0-10.97 3.28-13.476 8.447l-32.025 66.018h-31.95c-8.274 0-14.982 6.716-14.982 15v90.692c0 8.284 6.708 15 14.982 15h29.544c6.185 17.457 22.837 29.998 42.368 29.998zm0-29.999c-8.261 0-14.982-6.729-14.982-15s6.721-15 14.982-15 14.982 6.729 14.982 15-6.721 15-14.982 15zm179.78 0c-8.261 0-14.982-6.729-14.982-15s6.721-15 14.982-15 14.982 6.729 14.982 15-6.721 15-14.982 15zm-164.862-165.156h111.959l21.57 44.465h-155.099zm-71.849 74.464h261.303c17.831 0 32.338 14.524 32.338 32.377v28.316h-14.562c-6.185-17.458-22.837-29.999-42.368-29.999s-36.183 12.541-42.368 29.999h-95.044c-6.185-17.458-22.837-29.999-42.368-29.999s-36.183 12.541-42.368 29.999h-14.562v-60.693z"/></g><g><path d="m32.069 225.412c7.223-53.078 33.217-102.016 73.191-137.798s91.482-56.218 145.034-57.544c41.599-1.024 82.541 9.445 118.179 29.86l-15.172 3.346c-8.09 1.784-13.202 9.789-11.418 17.878 1.75 8.148 9.998 13.221 17.879 11.417l49.06-10.82c7.785-1.521 13.22-9.699 11.615-17.464l-9.375-49.465c-1.543-8.14-9.396-13.488-17.531-11.945-8.14 1.543-13.488 9.392-11.945 17.531l2.651 13.986c-40.57-23.449-87.248-35.493-134.685-34.315-60.672 1.501-119.022 24.65-164.302 65.182s-74.724 95.971-82.908 156.106c-8.09 59.448 4.933 120.019 36.67 170.555 4.433 7.075 13.771 9.093 20.681 4.725 7.016-4.406 9.131-13.665 4.725-20.68-28.004-44.593-39.493-98.061-32.349-150.555z"/><path d="m472.988 120.079c-4.406-7.016-13.665-9.131-20.681-4.725s-9.131 13.665-4.725 20.68c28.005 44.592 39.493 98.06 32.349 150.554-7.223 53.078-33.216 102.016-73.191 137.798-41.337 37.033-95.211 57.645-150.637 57.613-39.673-.001-78.546-10.429-112.58-29.928l15.176-3.347c8.09-1.784 13.202-9.789 11.418-17.878-1.785-8.091-9.794-13.203-17.879-11.417l-49.062 10.82c-7.784 1.522-13.217 9.699-11.612 17.464l9.375 49.465c1.505 8.19 9.59 13.512 17.531 11.945 8.14-1.543 13.488-9.392 11.945-17.531l-2.648-13.973c38.756 22.4 83.089 34.381 128.34 34.38 62.791.035 123.819-23.314 170.642-65.26 45.28-40.532 74.724-95.971 82.908-156.106 8.091-59.447-4.932-120.018-36.669-170.554z"/></g></g></svg>