<svg id="Layer_2" viewBox="0 0 40 40" xmlns="http://www.w3.org/2000/svg" data-name="Layer 2"><path d="m2.47 25.1.51 1.77s-.09.05-.12.09c-.1.11-.14.25-.12.39.11.84.88 2.55 3.01 2.99 2.36.48 6.68.68 6.88.69h.3c.28 0 .5-.22.5-.5v-2.81c0-5.47 4.45-9.93 9.93-9.93s9.93 4.45 9.93 9.93v2.81c0 .28.22.5.5.5h4.28c.14 0 .27-.06.37-.16.09-.1.14-.24.13-.38l-1.04-15.09c-.07-.89-.11-3.44.48-4.61.07-.14.07-.3 0-.44s-.19-.24-.35-.27l-5.12-1.1c-.19-.04-.39.04-.51.19 0 .01-.79 1.01-3.29 1.16-2.8.18-11 1.01-13.83 1.49-3.06.52-6.44 1.25-8.29 2.69-.17.13-.23.35-.16.56 0 .02.03.03.04.05l-3.24 3.27c-.22.04-.35.06-.36.06-.14.02-.26.1-.33.21l-.74 1.08c-.34.5-.48 1.12-.37 1.72l.56 3.22c.04.22.22.38.44.41zm1.52 1.69-.48-1.68h3.37c.16 0 .31.07.41.19l.9 1.09c.09.11.05.22.03.26s-.08.14-.22.14zm3.64-11.36 3.6.03c-.79.98-1.61 1.63-2.32 1.84-.91.27-2.6.59-3.95.83l2.67-2.69zm-4.97 4.9.62-.9c.91-.15 4.38-.72 5.92-1.17 1.15-.34 2.17-1.37 2.82-2.17.25-.31.3-.72.13-1.08s-.52-.58-.92-.58h-2.4c1.75-.76 4.09-1.23 6.27-1.6 2.8-.48 10.94-1.31 13.72-1.48 2.27-.14 3.36-.9 3.8-1.32l4.26.92c-.56 1.76-.36 4.43-.35 4.55l1 14.55h-3.25v-2.31c0-6.03-4.9-10.93-10.93-10.93s-10.93 4.9-10.93 10.93v2.3c-.93-.05-4.5-.26-6.48-.66-1.25-.25-1.81-1.03-2.05-1.57h4.11c.49 0 .92-.27 1.13-.72.21-.44.14-.95-.17-1.32l-.9-1.09c-.29-.35-.72-.55-1.18-.55h-3.95l-.49-2.81c-.06-.35.02-.7.21-.99z"/></svg>