<svg xmlns="http://www.w3.org/2000/svg" height="511pt" version="1.1" viewBox="0 -71 511.99978 511" width="511pt">
<g id="surface1">
<path d="M 102.460938 264.773438 C 73.484375 264.773438 49.910156 288.347656 49.910156 317.324219 C 49.910156 346.300781 73.484375 369.878906 102.460938 369.878906 C 131.441406 369.878906 155.015625 346.300781 155.015625 317.324219 C 155.015625 288.347656 131.441406 264.773438 102.460938 264.773438 Z M 102.460938 354.863281 C 81.765625 354.863281 64.925781 338.023438 64.925781 317.324219 C 64.925781 296.625 81.765625 279.789062 102.460938 279.789062 C 123.160156 279.789062 140 296.625 140 317.324219 C 140 338.023438 123.160156 354.863281 102.460938 354.863281 Z M 102.460938 354.863281 " style=" stroke:none;fill-rule:nonzero;fill:rgb(0%,0%,0%);fill-opacity:1;" />
<path d="M 102.460938 294.800781 C 90.042969 294.800781 79.941406 304.90625 79.941406 317.324219 C 79.941406 329.742188 90.042969 339.847656 102.460938 339.847656 C 114.882812 339.847656 124.984375 329.742188 124.984375 317.324219 C 124.984375 304.90625 114.882812 294.800781 102.460938 294.800781 Z M 102.460938 324.832031 C 98.324219 324.832031 94.957031 321.464844 94.957031 317.324219 C 94.957031 313.183594 98.324219 309.816406 102.460938 309.816406 C 106.601562 309.816406 109.96875 313.183594 109.96875 317.324219 C 109.96875 321.464844 106.601562 324.832031 102.460938 324.832031 Z M 102.460938 324.832031 " style=" stroke:none;fill-rule:nonzero;fill:rgb(0%,0%,0%);fill-opacity:1;" />
<path d="M 0 304.8125 L 34.035156 304.8125 L 34.035156 319.828125 L 0 319.828125 Z M 0 304.8125 " style=" stroke:none;fill-rule:nonzero;fill:rgb(0%,0%,0%);fill-opacity:1;" />
<path d="M 493.238281 257.320312 L 480.804688 250.140625 L 498.503906 179.449219 L 367.945312 104.074219 L 306.902344 149.738281 L 268.710938 127.691406 C 260.03125 122.675781 249.914062 121.34375 240.226562 123.941406 C 230.542969 126.535156 222.449219 132.746094 217.433594 141.429688 L 199.597656 172.324219 L 112.5 48.933594 L 114.492188 41.488281 C 114.496094 41.480469 114.496094 41.472656 114.5 41.46875 C 116.75 33.074219 115.597656 24.304688 111.25 16.78125 C 106.90625 9.253906 99.890625 3.871094 91.496094 1.625 C 83.101562 -0.628906 74.335938 0.527344 66.8125 4.871094 C 59.285156 9.21875 53.902344 16.234375 51.652344 24.625 C 51.636719 24.691406 51.621094 24.753906 51.605469 24.816406 L 11.027344 176.253906 C 4.515625 183.007812 0.5 192.179688 0.5 202.28125 L 0.5 249.757812 L 186.6875 249.757812 L 186.6875 274.78125 L 170.894531 274.78125 L 170.894531 289.796875 L 199.699219 289.796875 L 199.699219 304.8125 L 170.894531 304.8125 L 170.894531 319.828125 L 214.714844 319.828125 L 214.714844 274.78125 L 201.703125 274.78125 L 201.703125 234.742188 L 75.574219 234.742188 L 75.574219 202.28125 C 75.574219 198.734375 75.070312 195.308594 74.148438 192.054688 L 107.441406 67.804688 L 191.332031 186.644531 L 183.652344 199.945312 L 219.714844 220.765625 C 211.511719 242.195312 219.859375 267.085938 240.351562 278.917969 C 247.824219 283.230469 255.984375 285.277344 264.046875 285.277344 C 278.101562 285.277344 291.828125 279.027344 301.015625 267.707031 L 366.21875 305.351562 C 358.015625 326.785156 366.363281 351.671875 386.859375 363.503906 C 394.328125 367.8125 402.488281 369.863281 410.550781 369.863281 C 424.605469 369.863281 438.332031 363.613281 447.519531 352.292969 L 473.195312 367.113281 L 506.980469 308.601562 C 517.328125 290.671875 511.164062 267.667969 493.238281 257.320312 Z M 60.5625 234.742188 L 15.515625 234.742188 L 15.515625 202.28125 C 15.515625 189.859375 25.621094 179.757812 38.039062 179.757812 C 50.457031 179.757812 60.5625 189.859375 60.5625 202.28125 Z M 63.296875 174.539062 C 56.625 168.457031 47.757812 164.742188 38.039062 164.742188 C 35.058594 164.742188 32.164062 165.101562 29.382812 165.761719 L 59.0625 54.996094 C 63.207031 59.550781 68.566406 62.839844 74.65625 64.46875 C 77.464844 65.222656 80.289062 65.582031 83.066406 65.582031 C 86.453125 65.582031 89.761719 65.03125 92.910156 64.027344 Z M 99.996094 37.582031 C 99.996094 37.582031 99.996094 37.582031 99.996094 37.585938 L 99.992188 37.597656 C 97.488281 46.914062 87.871094 52.464844 78.542969 49.96875 C 74.023438 48.757812 70.246094 45.859375 67.90625 41.804688 C 65.585938 37.78125 64.960938 33.101562 66.136719 28.609375 L 66.160156 28.515625 L 66.15625 28.515625 C 66.15625 28.515625 66.15625 28.515625 66.15625 28.511719 C 67.367188 23.992188 70.265625 20.214844 74.320312 17.875 C 77.019531 16.316406 80.011719 15.519531 83.050781 15.519531 C 84.570312 15.519531 86.101562 15.722656 87.613281 16.125 C 92.132812 17.335938 95.910156 20.234375 98.25 24.289062 C 100.589844 28.339844 101.207031 33.0625 99.996094 37.582031 Z M 481.1875 186.789062 L 467.28125 242.335938 L 426.921875 219.03125 L 454.449219 171.355469 Z M 369.011719 122.027344 L 441.445312 163.847656 L 413.917969 211.527344 L 321.050781 157.910156 Z M 292.300781 254.003906 C 286.28125 264.433594 275.324219 270.265625 264.070312 270.265625 C 258.554688 270.265625 252.96875 268.863281 247.859375 265.914062 C 232.324219 256.945312 226.984375 237.007812 235.953125 221.472656 C 240.296875 213.945312 247.3125 208.5625 255.707031 206.316406 C 258.507812 205.5625 261.355469 205.191406 264.179688 205.191406 C 269.816406 205.191406 275.378906 206.671875 280.394531 209.566406 C 287.917969 213.910156 293.300781 220.925781 295.550781 229.320312 C 297.800781 237.710938 296.644531 246.480469 292.300781 254.003906 Z M 438.804688 338.589844 C 432.785156 349.015625 421.828125 354.851562 410.574219 354.847656 C 405.0625 354.847656 399.472656 353.449219 394.363281 350.496094 C 386.839844 346.152344 381.457031 339.136719 379.207031 330.746094 C 376.957031 322.351562 378.109375 313.582031 382.457031 306.058594 C 388.476562 295.632812 399.433594 289.796875 410.683594 289.796875 C 416.199219 289.796875 421.789062 291.199219 426.898438 294.152344 C 442.433594 303.117188 447.773438 323.054688 438.804688 338.589844 Z M 493.976562 301.089844 L 467.699219 346.601562 L 455.042969 339.296875 C 463.246094 317.867188 454.898438 292.976562 434.402344 281.148438 C 413.910156 269.3125 388.183594 274.523438 373.722656 292.347656 L 308.539062 254.710938 C 316.742188 233.28125 308.390625 208.394531 287.898438 196.5625 C 267.40625 184.730469 241.675781 189.941406 227.21875 207.761719 L 204.160156 194.449219 L 230.4375 148.9375 C 233.445312 143.726562 238.304688 140 244.113281 138.445312 C 249.921875 136.886719 255.992188 137.683594 261.203125 140.695312 L 485.730469 270.324219 C 496.484375 276.53125 500.183594 290.335938 493.976562 301.089844 Z M 493.976562 301.089844 " style=" stroke:none;fill-rule:nonzero;fill:rgb(0%,0%,0%);fill-opacity:1;" />
<path d="M 214.214844 80.585938 L 229.230469 80.585938 L 229.230469 95.601562 L 214.214844 95.601562 Z M 214.214844 80.585938 " style=" stroke:none;fill-rule:nonzero;fill:rgb(0%,0%,0%);fill-opacity:1;" />
<path d="M 184.183594 80.585938 L 199.199219 80.585938 L 199.199219 95.601562 L 184.183594 95.601562 Z M 184.183594 80.585938 " style=" stroke:none;fill-rule:nonzero;fill:rgb(0%,0%,0%);fill-opacity:1;" />
<path d="M 244.246094 80.585938 L 259.261719 80.585938 L 259.261719 95.601562 L 244.246094 95.601562 Z M 244.246094 80.585938 " style=" stroke:none;fill-rule:nonzero;fill:rgb(0%,0%,0%);fill-opacity:1;" />
<path d="M 244.246094 40.546875 L 259.261719 40.546875 L 259.261719 55.5625 L 244.246094 55.5625 Z M 244.246094 40.546875 " style=" stroke:none;fill-rule:nonzero;fill:rgb(0%,0%,0%);fill-opacity:1;" />
<path d="M 274.273438 40.546875 L 289.289062 40.546875 L 289.289062 55.5625 L 274.273438 55.5625 Z M 274.273438 40.546875 " style=" stroke:none;fill-rule:nonzero;fill:rgb(0%,0%,0%);fill-opacity:1;" />
<path d="M 214.214844 40.546875 L 229.230469 40.546875 L 229.230469 55.5625 L 214.214844 55.5625 Z M 214.214844 40.546875 " style=" stroke:none;fill-rule:nonzero;fill:rgb(0%,0%,0%);fill-opacity:1;" />
<path d="M 30.53125 197.777344 L 45.546875 197.777344 L 45.546875 212.792969 L 30.53125 212.792969 Z M 30.53125 197.777344 " style=" stroke:none;fill-rule:nonzero;fill:rgb(0%,0%,0%);fill-opacity:1;" />
<path d="M 377.949219 242.785156 L 385.457031 229.78125 L 398.460938 237.289062 L 390.953125 250.292969 Z M 377.949219 242.785156 " style=" stroke:none;fill-rule:nonzero;fill:rgb(0%,0%,0%);fill-opacity:1;" />
<path d="M 335.472656 218.265625 L 342.980469 205.261719 L 372.457031 222.277344 L 364.949219 235.28125 Z M 335.472656 218.265625 " style=" stroke:none;fill-rule:nonzero;fill:rgb(0%,0%,0%);fill-opacity:1;" />
<path d="M 253.863281 240.492188 L 261.371094 227.488281 L 274.375 234.996094 L 266.867188 248 Z M 253.863281 240.492188 " style=" stroke:none;fill-rule:nonzero;fill:rgb(0%,0%,0%);fill-opacity:1;" />
<path d="M 400.367188 325.078125 L 407.875 312.074219 L 420.875 319.582031 L 413.367188 332.585938 Z M 400.367188 325.078125 " style=" stroke:none;fill-rule:nonzero;fill:rgb(0%,0%,0%);fill-opacity:1;" />
</g>
</svg>